<mxfile host="app.diagrams.net" modified="2024-04-08T22:07:48.649Z" agent="Mozilla/5.0 (X11; Linux x86_64) AppleWebKit/537.36 (KHTML, like Gecko) Chrome/122.0.0.0 Safari/537.36" etag="kNTDkAJG2BH1C6gbZayC" version="24.2.3" type="github" pages="4">
  <diagram name="Use Case" id="RmvoRTS_zdCGjgssuVrD">
    <mxGraphModel dx="1100" dy="755" grid="1" gridSize="10" guides="1" tooltips="1" connect="1" arrows="1" fold="1" page="1" pageScale="1" pageWidth="900" pageHeight="1600" math="0" shadow="0">
      <root>
        <mxCell id="0" />
        <mxCell id="1" parent="0" />
        <UserObject label="" plantUmlData="{&quot;data&quot;:&quot;@startuml\n\nleft to right direction\nskinparam packageStyle rectangle\n\nactor User\nactor Administrator\n\nrectangle \&quot;Use Cases\&quot; {\n    User --&gt; (View Weather Data)\n    User --&gt; (View Crop Yield Data)\n    User --&gt; (View Malnutrition Statistics)\n    User --&gt; (View Predictions)\n    \n    (Add Training Data) ..&gt; (Predict Malnutrition) : &lt;&lt;include&gt;&gt;\n    \n    Administrator --&gt; (Login)\n    Administrator --&gt; (Track Model Trainings)\n    Administrator --&gt; (Add Training Data)\n}\n\n@enduml\n&quot;,&quot;format&quot;:&quot;svg&quot;}" id="qrMmNnzYuyawPC7fo7iF-1">
          <mxCell style="shape=image;noLabel=1;verticalAlign=top;aspect=fixed;imageAspect=0;image=data:image/svg+xml,PD94bWwgdmVyc2lvbj0iMS4wIiBlbmNvZGluZz0idXMtYXNjaWkiIHN0YW5kYWxvbmU9Im5vIj8+PHN2ZyB4bWxucz0iaHR0cDovL3d3dy53My5vcmcvMjAwMC9zdmciIHhtbG5zOnhsaW5rPSJodHRwOi8vd3d3LnczLm9yZy8xOTk5L3hsaW5rIiBjb250ZW50U3R5bGVUeXBlPSJ0ZXh0L2NzcyIgaGVpZ2h0PSI1MzlweCIgcHJlc2VydmVBc3BlY3RSYXRpbz0ibm9uZSIgc3R5bGU9IndpZHRoOjcwOXB4O2hlaWdodDo1MzlweDtiYWNrZ3JvdW5kOiNGRkZGRkY7IiB2ZXJzaW9uPSIxLjEiIHZpZXdCb3g9IjAgMCA3MDkgNTM5IiB3aWR0aD0iNzA5cHgiIHpvb21BbmRQYW49Im1hZ25pZnkiPjxkZWZzLz48Zz48IS0tY2x1c3RlciBVc2UgQ2FzZXMtLT48ZyBpZD0iY2x1c3Rlcl9Vc2UgQ2FzZXMiPjxyZWN0IGZpbGw9Im5vbmUiIGhlaWdodD0iNTI2IiByeD0iMi41IiByeT0iMi41IiBzdHlsZT0ic3Ryb2tlOiMxODE4MTg7c3Ryb2tlLXdpZHRoOjEuMDsiIHdpZHRoPSI1NTgiIHg9IjE0NSIgeT0iNyIvPjx0ZXh0IGZpbGw9IiMwMDAwMDAiIGZvbnQtZmFtaWx5PSJzYW5zLXNlcmlmIiBmb250LXNpemU9IjE0IiBmb250LXdlaWdodD0iYm9sZCIgbGVuZ3RoQWRqdXN0PSJzcGFjaW5nIiB0ZXh0TGVuZ3RoPSI2MyIgeD0iMzkyLjUiIHk9IjIyLjIzNDQiPlVzZSBDYXNlczwvdGV4dD48L2c+PGcgaWQ9ImVsZW1fVmlldyBXZWF0aGVyIERhdGEiPjxlbGxpcHNlIGN4PSIyNzQuODkwMiIgY3k9IjU4LjE3OCIgZmlsbD0iI0YxRjFGMSIgcng9Ijc4Ljg5MDIiIHJ5PSIxOC4xNzgiIHN0eWxlPSJzdHJva2U6IzE4MTgxODtzdHJva2Utd2lkdGg6MC41OyIvPjx0ZXh0IGZpbGw9IiMwMDAwMDAiIGZvbnQtZmFtaWx5PSJzYW5zLXNlcmlmIiBmb250LXNpemU9IjE0IiBsZW5ndGhBZGp1c3Q9InNwYWNpbmciIHRleHRMZW5ndGg9IjEyMCIgeD0iMjE0Ljg5MDIiIHk9IjYxLjkyMDIiPlZpZXcgV2VhdGhlciBEYXRhPC90ZXh0PjwvZz48ZyBpZD0iZWxlbV9WaWV3IENyb3AgWWllbGQgRGF0YSI+PGVsbGlwc2UgY3g9IjI3NS4xNzk2IiBjeT0iMTMxLjAzNTkiIGZpbGw9IiNGMUYxRjEiIHJ4PSI4OC4xNzk2IiByeT0iMjAuMDM1OSIgc3R5bGU9InN0cm9rZTojMTgxODE4O3N0cm9rZS13aWR0aDowLjU7Ii8+PHRleHQgZmlsbD0iIzAwMDAwMCIgZm9udC1mYW1pbHk9InNhbnMtc2VyaWYiIGZvbnQtc2l6ZT0iMTQiIGxlbmd0aEFkanVzdD0ic3BhY2luZyIgdGV4dExlbmd0aD0iMTQxIiB4PSIyMDQuNjc5NiIgeT0iMTM0Ljc3ODEiPlZpZXcgQ3JvcCBZaWVsZCBEYXRhPC90ZXh0PjwvZz48ZyBpZD0iZWxlbV9WaWV3IE1hbG51dHJpdGlvbiBTdGF0aXN0aWNzIj48ZWxsaXBzZSBjeD0iMjc1LjAxMTYiIGN5PSIyMTEuMjAyMyIgZmlsbD0iI0YxRjFGMSIgcng9IjExNC4wMTE2IiByeT0iMjUuMjAyMyIgc3R5bGU9InN0cm9rZTojMTgxODE4O3N0cm9rZS13aWR0aDowLjU7Ii8+PHRleHQgZmlsbD0iIzAwMDAwMCIgZm9udC1mYW1pbHk9InNhbnMtc2VyaWYiIGZvbnQtc2l6ZT0iMTQiIGxlbmd0aEFkanVzdD0ic3BhY2luZyIgdGV4dExlbmd0aD0iMTk3IiB4PSIxNzYuNTExNiIgeT0iMjE0Ljk0NDUiPlZpZXcgTWFsbnV0cml0aW9uIFN0YXRpc3RpY3M8L3RleHQ+PC9nPjxnIGlkPSJlbGVtX1ZpZXcgUHJlZGljdGlvbnMiPjxlbGxpcHNlIGN4PSIyNzQuODY2OCIgY3k9IjI4OS4wNzM0IiBmaWxsPSIjRjFGMUYxIiByeD0iNzUuODY2OCIgcnk9IjE3LjU3MzQiIHN0eWxlPSJzdHJva2U6IzE4MTgxODtzdHJva2Utd2lkdGg6MC41OyIvPjx0ZXh0IGZpbGw9IiMwMDAwMDAiIGZvbnQtZmFtaWx5PSJzYW5zLXNlcmlmIiBmb250LXNpemU9IjE0IiBsZW5ndGhBZGp1c3Q9InNwYWNpbmciIHRleHRMZW5ndGg9IjExMyIgeD0iMjE4LjM2NjgiIHk9IjI5Mi44MTU1Ij5WaWV3IFByZWRpY3Rpb25zPC90ZXh0PjwvZz48ZyBpZD0iZWxlbV9BZGQgVHJhaW5pbmcgRGF0YSI+PGVsbGlwc2UgY3g9IjI3NC45NTU4IiBjeT0iMzYwLjA5MTIiIGZpbGw9IiNGMUYxRjEiIHJ4PSI3OC40NTU4IiByeT0iMTguMDkxMiIgc3R5bGU9InN0cm9rZTojMTgxODE4O3N0cm9rZS13aWR0aDowLjU7Ii8+PHRleHQgZmlsbD0iIzAwMDAwMCIgZm9udC1mYW1pbHk9InNhbnMtc2VyaWYiIGZvbnQtc2l6ZT0iMTQiIGxlbmd0aEFkanVzdD0ic3BhY2luZyIgdGV4dExlbmd0aD0iMTE5IiB4PSIyMTUuNDU1OCIgeT0iMzYzLjgzMzMiPkFkZCBUcmFpbmluZyBEYXRhPC90ZXh0PjwvZz48ZyBpZD0iZWxlbV9QcmVkaWN0IE1hbG51dHJpdGlvbiI+PGVsbGlwc2UgY3g9IjU5OS43MzA5IiBjeT0iMzU5Ljk0NjIiIGZpbGw9IiNGMUYxRjEiIHJ4PSI4Ny43MzA5IiByeT0iMTkuOTQ2MiIgc3R5bGU9InN0cm9rZTojMTgxODE4O3N0cm9rZS13aWR0aDowLjU7Ii8+PHRleHQgZmlsbD0iIzAwMDAwMCIgZm9udC1mYW1pbHk9InNhbnMtc2VyaWYiIGZvbnQtc2l6ZT0iMTQiIGxlbmd0aEFkanVzdD0ic3BhY2luZyIgdGV4dExlbmd0aD0iMTQwIiB4PSI1MjkuNzMwOSIgeT0iMzYzLjY4ODQiPlByZWRpY3QgTWFsbnV0cml0aW9uPC90ZXh0PjwvZz48ZyBpZD0iZWxlbV9Mb2dpbiI+PGVsbGlwc2UgY3g9IjI3NS4yMzQiIGN5PSI0MjcuMDk1NiIgZmlsbD0iI0YxRjFGMSIgcng9IjM2LjIzNCIgcnk9IjEzLjU5NTYiIHN0eWxlPSJzdHJva2U6IzE4MTgxODtzdHJva2Utd2lkdGg6MC41OyIvPjx0ZXh0IGZpbGw9IiMwMDAwMDAiIGZvbnQtZmFtaWx5PSJzYW5zLXNlcmlmIiBmb250LXNpemU9IjE0IiBsZW5ndGhBZGp1c3Q9InNwYWNpbmciIHRleHRMZW5ndGg9IjM1IiB4PSIyNTcuNzM0IiB5PSI0MzAuODM3NyI+TG9naW48L3RleHQ+PC9nPjxnIGlkPSJlbGVtX1RyYWNrIE1vZGVsIFRyYWluaW5ncyI+PGVsbGlwc2UgY3g9IjI3NC44ODM5IiBjeT0iNDk2LjA3NjgiIGZpbGw9IiNGMUYxRjEiIHJ4PSI5MC44ODM5IiByeT0iMjAuNTc2OCIgc3R5bGU9InN0cm9rZTojMTgxODE4O3N0cm9rZS13aWR0aDowLjU7Ii8+PHRleHQgZmlsbD0iIzAwMDAwMCIgZm9udC1mYW1pbHk9InNhbnMtc2VyaWYiIGZvbnQtc2l6ZT0iMTQiIGxlbmd0aEFkanVzdD0ic3BhY2luZyIgdGV4dExlbmd0aD0iMTQ3IiB4PSIyMDEuMzgzOSIgeT0iNDk5LjgxOSI+VHJhY2sgTW9kZWwgVHJhaW5pbmdzPC90ZXh0PjwvZz48IS0tZW50aXR5IFVzZXItLT48ZyBpZD0iZWxlbV9Vc2VyIj48ZWxsaXBzZSBjeD0iNTIiIGN5PSIxNDIiIGZpbGw9IiNGMUYxRjEiIHJ4PSI4IiByeT0iOCIgc3R5bGU9InN0cm9rZTojMTgxODE4O3N0cm9rZS13aWR0aDowLjU7Ii8+PHBhdGggZD0iTTUyLDE1MCBMNTIsMTc3IE0zOSwxNTggTDY1LDE1OCBNNTIsMTc3IEwzOSwxOTIgTTUyLDE3NyBMNjUsMTkyICIgZmlsbD0ibm9uZSIgc3R5bGU9InN0cm9rZTojMTgxODE4O3N0cm9rZS13aWR0aDowLjU7Ii8+PHRleHQgZmlsbD0iIzAwMDAwMCIgZm9udC1mYW1pbHk9InNhbnMtc2VyaWYiIGZvbnQtc2l6ZT0iMTQiIGxlbmd0aEFkanVzdD0ic3BhY2luZyIgdGV4dExlbmd0aD0iMjgiIHg9IjM4IiB5PSIyMDYuNzM0NCI+VXNlcjwvdGV4dD48L2c+PCEtLWVudGl0eSBBZG1pbmlzdHJhdG9yLS0+PGcgaWQ9ImVsZW1fQWRtaW5pc3RyYXRvciI+PGVsbGlwc2UgY3g9IjUyIiBjeT0iMzk4IiBmaWxsPSIjRjFGMUYxIiByeD0iOCIgcnk9IjgiIHN0eWxlPSJzdHJva2U6IzE4MTgxODtzdHJva2Utd2lkdGg6MC41OyIvPjxwYXRoIGQ9Ik01Miw0MDYgTDUyLDQzMyBNMzksNDE0IEw2NSw0MTQgTTUyLDQzMyBMMzksNDQ4IE01Miw0MzMgTDY1LDQ0OCAiIGZpbGw9Im5vbmUiIHN0eWxlPSJzdHJva2U6IzE4MTgxODtzdHJva2Utd2lkdGg6MC41OyIvPjx0ZXh0IGZpbGw9IiMwMDAwMDAiIGZvbnQtZmFtaWx5PSJzYW5zLXNlcmlmIiBmb250LXNpemU9IjE0IiBsZW5ndGhBZGp1c3Q9InNwYWNpbmciIHRleHRMZW5ndGg9IjkyIiB4PSI2IiB5PSI0NjIuNzM0NCI+QWRtaW5pc3RyYXRvcjwvdGV4dD48L2c+PCEtLWxpbmsgVXNlciB0byBWaWV3IFdlYXRoZXIgRGF0YS0tPjxnIGlkPSJsaW5rX1VzZXJfVmlldyBXZWF0aGVyIERhdGEiPjxwYXRoIGQ9Ik02Ni4wOSwxNTQuNzIgQzgxLjI5LDEzNi45MiAxMDgsMTA4LjgyIDEzNyw5MyBDMTU4Ljg4LDgxLjA3IDE3OS4wODYxLDc0LjQxNTggMjAyLjU3NjEsNjkuMTM1OCAiIGZpbGw9Im5vbmUiIGlkPSJVc2VyLXRvLVZpZXcgV2VhdGhlciBEYXRhIiBzdHlsZT0ic3Ryb2tlOiMxODE4MTg7c3Ryb2tlLXdpZHRoOjEuMDsiLz48cG9seWdvbiBmaWxsPSIjMTgxODE4IiBwb2ludHM9IjIwOC40Myw2Ny44MiwxOTguNzcxOSw2NS44OTExLDIwMy41NTE3LDY4LjkxNjUsMjAwLjUyNjMsNzMuNjk2NCwyMDguNDMsNjcuODIiIHN0eWxlPSJzdHJva2U6IzE4MTgxODtzdHJva2Utd2lkdGg6MS4wOyIvPjwvZz48IS0tbGluayBVc2VyIHRvIFZpZXcgQ3JvcCBZaWVsZCBEYXRhLS0+PGcgaWQ9ImxpbmtfVXNlcl9WaWV3IENyb3AgWWllbGQgRGF0YSI+PHBhdGggZD0iTTY2LjE2LDE2OC42MiBDOTMuMDYsMTYzLjc1IDE1MC4wODU5LDE1My40Mjg3IDE5OS42OTU5LDE0NC40NDg3ICIgZmlsbD0ibm9uZSIgaWQ9IlVzZXItdG8tVmlldyBDcm9wIFlpZWxkIERhdGEiIHN0eWxlPSJzdHJva2U6IzE4MTgxODtzdHJva2Utd2lkdGg6MS4wOyIvPjxwb2x5Z29uIGZpbGw9IiMxODE4MTgiIHBvaW50cz0iMjA1LjYsMTQzLjM4LDE5Ni4wMzE0LDE0MS4wNDcsMjAwLjY4LDE0NC4yNzA2LDE5Ny40NTY0LDE0OC45MTkxLDIwNS42LDE0My4zOCIgc3R5bGU9InN0cm9rZTojMTgxODE4O3N0cm9rZS13aWR0aDoxLjA7Ii8+PC9nPjwhLS1saW5rIFVzZXIgdG8gVmlldyBNYWxudXRyaXRpb24gU3RhdGlzdGljcy0tPjxnIGlkPSJsaW5rX1VzZXJfVmlldyBNYWxudXRyaXRpb24gU3RhdGlzdGljcyI+PHBhdGggZD0iTTY2LjE2LDE3My4zOCBDODkuNzIsMTc3LjY1IDEzNC45OTYsMTg1Ljg0MDkgMTgwLjY2NiwxOTQuMTEwOSAiIGZpbGw9Im5vbmUiIGlkPSJVc2VyLXRvLVZpZXcgTWFsbnV0cml0aW9uIFN0YXRpc3RpY3MiIHN0eWxlPSJzdHJva2U6IzE4MTgxODtzdHJva2Utd2lkdGg6MS4wOyIvPjxwb2x5Z29uIGZpbGw9IiMxODE4MTgiIHBvaW50cz0iMTg2LjU3LDE5NS4xOCwxNzguNDI2OCwxODkuNjQwNCwxODEuNjUsMTk0LjI4OTEsMTc3LjAwMTMsMTk3LjUxMjMsMTg2LjU3LDE5NS4xOCIgc3R5bGU9InN0cm9rZTojMTgxODE4O3N0cm9rZS13aWR0aDoxLjA7Ii8+PC9nPjwhLS1saW5rIFVzZXIgdG8gVmlldyBQcmVkaWN0aW9ucy0tPjxnIGlkPSJsaW5rX1VzZXJfVmlldyBQcmVkaWN0aW9ucyI+PHBhdGggZD0iTTY2LjIsMTg4LjQ0IEM4MS4zLDIwNy4xNiAxMDcuNzQsMjM2LjQzIDEzNywyNTMgQzE1OS40NywyNjUuNzIgMTgwLjcwNTksMjcyLjc0NTEgMjA0LjgzNTksMjc4LjE2NTEgIiBmaWxsPSJub25lIiBpZD0iVXNlci10by1WaWV3IFByZWRpY3Rpb25zIiBzdHlsZT0ic3Ryb2tlOiMxODE4MTg7c3Ryb2tlLXdpZHRoOjEuMDsiLz48cG9seWdvbiBmaWxsPSIjMTgxODE4IiBwb2ludHM9IjIxMC42OSwyNzkuNDgsMjAyLjc4NTQsMjczLjYwNDgsMjA1LjgxMTYsMjc4LjM4NDIsMjAxLjAzMjIsMjgxLjQxMDQsMjEwLjY5LDI3OS40OCIgc3R5bGU9InN0cm9rZTojMTgxODE4O3N0cm9rZS13aWR0aDoxLjA7Ii8+PC9nPjwhLS1saW5rIEFkZCBUcmFpbmluZyBEYXRhIHRvIFByZWRpY3QgTWFsbnV0cml0aW9uLS0+PGcgaWQ9ImxpbmtfQWRkIFRyYWluaW5nIERhdGFfUHJlZGljdCBNYWxudXRyaXRpb24iPjxwYXRoIGQ9Ik0zNTMuNjYsMzYwIEM0MDEuMzcsMzYwIDQ1Ni41OCwzNjAgNTA1Ljg2LDM2MCAiIGZpbGw9Im5vbmUiIGlkPSJBZGQgVHJhaW5pbmcgRGF0YS10by1QcmVkaWN0IE1hbG51dHJpdGlvbiIgc3R5bGU9InN0cm9rZTojMTgxODE4O3N0cm9rZS13aWR0aDoxLjA7c3Ryb2tlLWRhc2hhcnJheTo3LjAsNy4wOyIvPjxwb2x5Z29uIGZpbGw9IiMxODE4MTgiIHBvaW50cz0iNTExLjg2LDM2MCw1MDIuODYsMzU2LDUwNi44NiwzNjAsNTAyLjg2LDM2NCw1MTEuODYsMzYwIiBzdHlsZT0ic3Ryb2tlOiMxODE4MTg7c3Ryb2tlLXdpZHRoOjEuMDsiLz48dGV4dCBmaWxsPSIjMDAwMDAwIiBmb250LWZhbWlseT0ic2Fucy1zZXJpZiIgZm9udC1zaXplPSIxMyIgbGVuZ3RoQWRqdXN0PSJzcGFjaW5nIiB0ZXh0TGVuZ3RoPSI2MSIgeD0iNDIwIiB5PSIzNTguMjg5MSI+JiMxNzE7aW5jbHVkZSYjMTg3OzwvdGV4dD48L2c+PCEtLWxpbmsgQWRtaW5pc3RyYXRvciB0byBMb2dpbi0tPjxnIGlkPSJsaW5rX0FkbWluaXN0cmF0b3JfTG9naW4iPjxwYXRoIGQ9Ik05OC4yNiw0MjcgQzEzOS45Myw0MjcgMTk0Ljg5LDQyNyAyMzIuOTYsNDI3ICIgZmlsbD0ibm9uZSIgaWQ9IkFkbWluaXN0cmF0b3ItdG8tTG9naW4iIHN0eWxlPSJzdHJva2U6IzE4MTgxODtzdHJva2Utd2lkdGg6MS4wOyIvPjxwb2x5Z29uIGZpbGw9IiMxODE4MTgiIHBvaW50cz0iMjM4Ljk2LDQyNywyMjkuOTYsNDIzLDIzMy45Niw0MjcsMjI5Ljk2LDQzMSwyMzguOTYsNDI3IiBzdHlsZT0ic3Ryb2tlOiMxODE4MTg7c3Ryb2tlLXdpZHRoOjEuMDsiLz48L2c+PCEtLWxpbmsgQWRtaW5pc3RyYXRvciB0byBUcmFjayBNb2RlbCBUcmFpbmluZ3MtLT48ZyBpZD0ibGlua19BZG1pbmlzdHJhdG9yX1RyYWNrIE1vZGVsIFRyYWluaW5ncyI+PHBhdGggZD0iTTk4LjEsNDQ0LjQzIEMxMTAuNjIsNDQ5LjA1IDEyNC4yOCw0NTMuOSAxMzcsNDU4IEMxNjIuMTMsNDY2LjExIDE4NC4zOTgsNDcyLjUxMzkgMjA4LjU0OCw0NzkuMDQzOSAiIGZpbGw9Im5vbmUiIGlkPSJBZG1pbmlzdHJhdG9yLXRvLVRyYWNrIE1vZGVsIFRyYWluaW5ncyIgc3R5bGU9InN0cm9rZTojMTgxODE4O3N0cm9rZS13aWR0aDoxLjA7Ii8+PHBvbHlnb24gZmlsbD0iIzE4MTgxOCIgcG9pbnRzPSIyMTQuMzQsNDgwLjYxLDIwNi42OTYxLDQ3NC4zOTk1LDIwOS41MTMzLDQ3OS4zMDQ5LDIwNC42MDc5LDQ4Mi4xMjIyLDIxNC4zNCw0ODAuNjEiIHN0eWxlPSJzdHJva2U6IzE4MTgxODtzdHJva2Utd2lkdGg6MS4wOyIvPjwvZz48IS0tbGluayBBZG1pbmlzdHJhdG9yIHRvIEFkZCBUcmFpbmluZyBEYXRhLS0+PGcgaWQ9ImxpbmtfQWRtaW5pc3RyYXRvcl9BZGQgVHJhaW5pbmcgRGF0YSI+PHBhdGggZD0iTTk4LjA2LDQwOS40NiBDMTEwLjU5LDQwNC44MyAxMjQuMjUsNDAwLjAyIDEzNywzOTYgQzE2NC4wOSwzODcuNDYgMTg4LjgwMTksMzgwLjc2NiAyMTQuMTYxOSwzNzQuMzc2ICIgZmlsbD0ibm9uZSIgaWQ9IkFkbWluaXN0cmF0b3ItdG8tQWRkIFRyYWluaW5nIERhdGEiIHN0eWxlPSJzdHJva2U6IzE4MTgxODtzdHJva2Utd2lkdGg6MS4wOyIvPjxwb2x5Z29uIGZpbGw9IiMxODE4MTgiIHBvaW50cz0iMjE5Ljk4LDM3Mi45MSwyMTAuMjc1NCwzNzEuMjMwMiwyMTUuMTMxNSwzNzQuMTMxNywyMTIuMjMwMSwzNzguOTg3OCwyMTkuOTgsMzcyLjkxIiBzdHlsZT0ic3Ryb2tlOiMxODE4MTg7c3Ryb2tlLXdpZHRoOjEuMDsiLz48L2c+PCEtLVNSQz1bVFAxRlFtOG40Q05sLUhHRkotdjFGcTJIMVI3NzJlQnpHdXozQ2V0M25jSDlIYWVmX1V4RHdjQUhrWmM0OUV5dHl6dWF5OFQyNHhCdVd5OTlQZ2tJZVljVG45dW83VDZKeFNacE5oeTJPdjBmLWkzNmFETUt5TDh1WnlVckVxZ0tlZmRncFBXaFliYzVpQTcyUE9QbFd4ZzZBWW1NQlVRbG1menVPejkzVk5hYWZVT1VpQ2NmbnhqbVNERkNiYTh5UVBPWEZsUEFNZ0U4Qk5WUE5NT2R2cTU3X1JwRHJ5eFhFTEVUOGxnQjRQUkJNWkZZRG5PRDdoMVFJUkpYdkJYal94aFNWQ0Y1eW9idllTc0tNWHJqWHNybzdBeGtQUEItZHo3eV8wODBdLS0+PC9nPjwvc3ZnPg==;" vertex="1" parent="1">
            <mxGeometry x="70" y="230" width="709" height="539" as="geometry" />
          </mxCell>
        </UserObject>
      </root>
    </mxGraphModel>
  </diagram>
  <diagram id="yM5Cn00qcSebFuW23Zfm" name="Context Diagram">
    <mxGraphModel dx="880" dy="604" grid="1" gridSize="10" guides="1" tooltips="1" connect="1" arrows="1" fold="1" page="1" pageScale="1" pageWidth="900" pageHeight="1600" math="0" shadow="0">
      <root>
        <mxCell id="0" />
        <mxCell id="1" parent="0" />
        <UserObject label="" plantUmlData="{&quot;data&quot;:&quot;@startuml\n\ntitle Level 0 DFD(Context Diagram): NutriPredict System\n\nactor User\nactor Administrator\ncontrol \&quot;External Weather API\&quot; as WeatherAPI\ncloud \&quot;NutriPredict System\&quot; {\n    database \&quot;Database\&quot; as DB\n    control \&quot;Trained Model\&quot; as Model\n    (NutriPredict)\n}\n\nUser --&gt; (NutriPredict)\nAdministrator --&gt; (NutriPredict)\nNutriPredict --&gt; DB : Manages Data\nNutriPredict --&gt; Model : Manages Model\n\nModel --&gt; User : Provides Predictions\nNutriPredict --&gt; WeatherAPI : Requests Weather Data\n\n@enduml\n&quot;,&quot;format&quot;:&quot;svg&quot;}" id="l0ETwfFKQodc9gtIOnIO-1">
          <mxCell style="shape=image;noLabel=1;verticalAlign=top;aspect=fixed;imageAspect=0;image=data:image/svg+xml,PD94bWwgdmVyc2lvbj0iMS4wIiBlbmNvZGluZz0idXMtYXNjaWkiIHN0YW5kYWxvbmU9Im5vIj8+PHN2ZyB4bWxucz0iaHR0cDovL3d3dy53My5vcmcvMjAwMC9zdmciIHhtbG5zOnhsaW5rPSJodHRwOi8vd3d3LnczLm9yZy8xOTk5L3hsaW5rIiBjb250ZW50U3R5bGVUeXBlPSJ0ZXh0L2NzcyIgaGVpZ2h0PSI1MDdweCIgcHJlc2VydmVBc3BlY3RSYXRpbz0ibm9uZSIgc3R5bGU9IndpZHRoOjUwN3B4O2hlaWdodDo1MDdweDtiYWNrZ3JvdW5kOiNGRkZGRkY7IiB2ZXJzaW9uPSIxLjEiIHZpZXdCb3g9IjAgMCA1MDcgNTA3IiB3aWR0aD0iNTA3cHgiIHpvb21BbmRQYW49Im1hZ25pZnkiPjxkZWZzLz48Zz48dGV4dCBmaWxsPSIjMDAwMDAwIiBmb250LWZhbWlseT0ic2Fucy1zZXJpZiIgZm9udC1zaXplPSIxNCIgZm9udC13ZWlnaHQ9ImJvbGQiIGxlbmd0aEFkanVzdD0ic3BhY2luZyIgdGV4dExlbmd0aD0iMzQ3IiB4PSI3My4yODE4IiB5PSIyMy4yMzQ0Ij5MZXZlbCAwIERGRChDb250ZXh0IERpYWdyYW0pOiBOdXRyaVByZWRpY3QgU3lzdGVtPC90ZXh0PjwhLS1jbHVzdGVyIE51dHJpUHJlZGljdCBTeXN0ZW0tLT48ZyBpZD0iY2x1c3Rlcl9OdXRyaVByZWRpY3QgU3lzdGVtIj48cGF0aCBkPSJNMjkuNDE5OSwxNzIuMzcwOCBDMzQuMzQxMSwxNjQuNDIwNiA0NC4wNzE1LDE2MS44NDM0IDQ5LjExMjQsMTcyLjI0MjQgQzUzLjUwNzksMTY1Ljg4NTkgNTkuOTg2MywxNjUuOTE0NyA2My45ODE2LDE3Mi42OTUzIEM2OC41MDY4LDE2My4wMzMzIDc2Ljg5NTMsMTYxLjIyNiA4My45NjI0LDE2OS45Mjk5IEM4OS4wNTc4LDE2My4xMDc0IDk1LjA5NDEsMTYxLjAzODYgMTAwLjM3NTEsMTY5LjczMzUgQzEwNi44ODMzLDE2MC45ODY0IDExNS4xODExLDE2MC4xNzYgMTIwLjczNTYsMTcwLjczOTIgQzEyMy41MjUsMTYyLjIxMDcgMTMxLjEyNSwxNjAuOTYwNCAxMzYuNTIxLDE2OC4xMTU2IEMxNDMuNDkyNSwxNTguNTU0IDE1Mi4yMjM3LDE2MC40NjYxIDE1Ny45NTE5LDE2OS41NDUgQzE2MS42OTI0LDE2MC4zMzYzIDE2OS4xMjE4LDE2MC45OTczIDE3NC41MDExLDE2Ny44NTcxIEMxODIuNTY3MiwxNTcuOTc2OCAxODguNDk5NywxNjAuODQ2NiAxOTQuMzMzOCwxNzAuMTYzIEMxOTcuNzM1LDE2MS41Nzk5IDIwNi4wMjUsMTYyLjQ3ODIgMjEwLjY4OTMsMTY4Ljc3NDYgQzIxOC41Mjg4LDE2MS4wNjIgMjI0LjI1OTksMTYzLjI0ODcgMjI4LjUyOTEsMTcyLjUyMzkgQzIzNC4zNDA3LDE2Mi44MTA1IDI0MC4xMzg3LDE2My4zNzQ1IDI0Ni42NTI2LDE3MS44MjMyIEMyNTMuMDY2NywxNjIuODIwOSAyNTguOTA0NCwxNjUuNTg3MSAyNjQuMDcxMywxNzMuMTM1OCBDMjc1LjA2MDcsMTYyLjg1MTEgMjgyLjgxNTEsMTY0Ljc3MDMgMjg4LjU2MzYsMTc4LjQ4NDQgQzI4OS4yNTMsMTc3LjYzODUgMjkwLjAwOTQsMTc3Ljk5MDIgMjkwLjM5MzYsMTc4LjgxODEgQzI5OS44ODg1LDE4My40Nzg3IDMwMS44MTMxLDE5NC4yMSAyOTIuNjk0NywyMDAuODE3NSBDMzAzLjE0OTksMjA2Ljc0MzkgMzA0LjAyMzQsMjE1LjM0MDEgMjk0LjMyMjksMjIyLjc2MiBDMzAzLjY5MTUsMjI5LjczODMgMzAzLjg4MjEsMjM2LjQ1MTcgMjkzLjk2MTIsMjQzLjA4NDcgQzMwNy4wMDM5LDI0OS42Mjk4IDMwNi41Mzc1LDI1OC43MDcxIDI5Ni4xMjk4LDI2Ny4zNDgxIEMzMDQuMjY3NiwyNzQuNDA0NCAzMDMuMDQyMSwyODMuMTA3MiAyOTMuMzg1OCwyODcuNzcyOCBDMzA1LjI0MjgsMjkzLjE2OTEgMzAzLjc1OCwzMDMuNTA3MiAyOTMuNzM4NSwzMDkuMjYyNSBDMzAyLjk1NjEsMzE1Ljk2NzMgMjk5Ljg2NjcsMzI0LjgxMjUgMjkwLjU5NDcsMzI4LjQ5NDkgQzMwMS41MzYsMzQyLjQwMzIgMjk2LjMyMDksMzUwLjg2OCAyODEuNTYzNiwzNTYuNDg0NCBDMjgyLjE5ODUsMzU2LjExNSAyODIuNjYxNywzNTYuNTA1NyAyODIuNjIzNywzNTcuMTcyNyBDMjc5LjgyMzMsMzY2LjY0MTggMjcxLjgzODYsMzY4LjMwMzMgMjY1Ljk5MTcsMzYwLjAyODIgQzI1OS45MDc2LDM3MC40MzQ5IDI1Mi42MzE5LDM2OC42MjE1IDI0Ni4zMDMsMzYwLjI4NTQgQzI0MC41OTk4LDM2Ny40NjQ5IDIzMy43NTgzLDM2OC4wMzEyIDIyOS4wNjAxLDM1OS4yMDI4IEMyMjUuMDgzNywzNjcuMDU1NSAyMTcuNTE5OCwzNjguOTg4IDIxMS44NDA3LDM2MS4wNjA4IEMyMDQuOTUwOSwzNzEuODcwOSAxOTguNTQ4MiwzNjkuMTMwOSAxOTEuOTQ2LDM2MC43NjI1IEMxODYuMTI1MSwzNjcuMDQwNyAxNzkuNzE0MSwzNjcuNDg5NCAxNzUuMjE4OSwzNTkuMjM2NCBDMTcxLjI5NTMsMzY3LjU5MjIgMTYzLjAzMzksMzY4LjkxMTMgMTU3LjM0NjUsMzYxLjE5OCBDMTUyLjY4MjMsMzcxLjc1NjYgMTQyLjY5MDYsMzY5LjkzMjIgMTM3LjI1MjgsMzYyLjA0MDQgQzEzMC40Njg4LDM3MS4wNDE3IDEyNC4yMTcsMzY5LjA2NjMgMTE4Ljg4MTYsMzYwLjUyMzQgQzExNC4yODQ1LDM2OC44MDE2IDEwOC4yMzg0LDM2OC4zOTg5IDEwMy40ODcyLDM2MC42NzE2IEM5Ni44NTk2LDM2OS4yMDQ3IDg3LjcwMDgsMzY3LjY2NDkgODIuODk4OCwzNTguNTQyNyBDNzYuNzEzMywzNjUuNTkyNSA3MC4yODYzLDM2Ni42MzYxIDY1LjI3NzUsMzU3LjI3OSBDNjEuMzI5NCwzNjUuNTM4NyA1Mi41MzUsMzY4LjU2MDIgNDYuMzI5MSwzNTkuNzkxNCBDMzQuNDE2MiwzNjcuMTMxMyAyMy40ODkxLDM2NC42MTEyIDIwLjU2MzYsMzQ5LjQ4NDQgQzIyLjE3MDksMzQ5LjU0MTggMjIuNzUzNywzNTAuNTIzNCAyMi4wNzE4LDM1MS45Njk5IEMxMS4zMjU1LDM0NC44Mzk2IDEyLjU5NDksMzM3LjA4OSAyMi4xOTc0LDMzMC4wNzU1IEMxMC4yNTMsMzI1LjQ2NDkgOC4zOTI4LDMxNi43NDYyIDE5LjE1NDQsMzA4Ljg3NjQgQzkuMzMzMiwzMDMuNDA5NiA2LjQ5NDgsMjkxLjk2ODcgMTcuOTU0NiwyODUuNDEzNyBDOS43MDA2LDI4MC4xNzAyIDguNzc5NCwyNzMuODkxOSAxNi42NDIxLDI2Ny40Njk1IEM2LDI2MC40OTExIDcuMTQ0OSwyNTEuMzg4MyAxOC4xMjI0LDI0NS44OTMyIEM3LjYyNjksMjM3LjM5NjEgOC40MzY2LDIyOS4yOTY2IDE5LjkzMTQsMjIyLjUgQzguNzI2OSwyMTUuMzU4OSA5LjUxNTgsMjA0LjQ2MjEgMjIuNDgxNywyMDAuMDY5IEM4LjMwMDgsMTg5LjA5ODIgMTMuNDE0NCwxNzcuNDE4NSAyNy41NjM2LDE3MS40ODQ0IEMyOC41MjU5LDE3MC44MjAzIDI5LjM0MTIsMTcxLjE4NDMgMjkuNDE5OSwxNzIuMzcwOCAiIGZpbGw9Im5vbmUiIHN0eWxlPSJzdHJva2U6IzE4MTgxODtzdHJva2Utd2lkdGg6MS4wOyIvPjx0ZXh0IGZpbGw9IiMwMDAwMDAiIGZvbnQtZmFtaWx5PSJzYW5zLXNlcmlmIiBmb250LXNpemU9IjE0IiBmb250LXdlaWdodD0iYm9sZCIgbGVuZ3RoQWRqdXN0PSJzcGFjaW5nIiB0ZXh0TGVuZ3RoPSIxMzQiIHg9Ijg3LjU2MzYiIHk9IjE4OS43MTg4Ij5OdXRyaVByZWRpY3QgU3lzdGVtPC90ZXh0PjwvZz48IS0tZW50aXR5IERCLS0+PGcgaWQ9ImVsZW1fREIiPjxwYXRoIGQ9Ik0yOC41NjM2LDMxMi45ODQ0IEMyOC41NjM2LDMwMi45ODQ0IDY2LjU2MzYsMzAyLjk4NDQgNjYuNTYzNiwzMDIuOTg0NCBDNjYuNTYzNiwzMDIuOTg0NCAxMDQuNTYzNiwzMDIuOTg0NCAxMDQuNTYzNiwzMTIuOTg0NCBMMTA0LjU2MzYsMzM2Ljk2ODggQzEwNC41NjM2LDM0Ni45Njg4IDY2LjU2MzYsMzQ2Ljk2ODggNjYuNTYzNiwzNDYuOTY4OCBDNjYuNTYzNiwzNDYuOTY4OCAyOC41NjM2LDM0Ni45Njg4IDI4LjU2MzYsMzM2Ljk2ODggTDI4LjU2MzYsMzEyLjk4NDQgIiBmaWxsPSIjRjFGMUYxIiBzdHlsZT0ic3Ryb2tlOiMxODE4MTg7c3Ryb2tlLXdpZHRoOjAuNTsiLz48cGF0aCBkPSJNMjguNTYzNiwzMTIuOTg0NCBDMjguNTYzNiwzMjIuOTg0NCA2Ni41NjM2LDMyMi45ODQ0IDY2LjU2MzYsMzIyLjk4NDQgQzY2LjU2MzYsMzIyLjk4NDQgMTA0LjU2MzYsMzIyLjk4NDQgMTA0LjU2MzYsMzEyLjk4NDQgIiBmaWxsPSJub25lIiBzdHlsZT0ic3Ryb2tlOiMxODE4MTg7c3Ryb2tlLXdpZHRoOjAuNTsiLz48dGV4dCBmaWxsPSIjMDAwMDAwIiBmb250LWZhbWlseT0ic2Fucy1zZXJpZiIgZm9udC1zaXplPSIxNCIgbGVuZ3RoQWRqdXN0PSJzcGFjaW5nIiB0ZXh0TGVuZ3RoPSI1NiIgeD0iMzguNTYzNiIgeT0iMzQwLjIxODgiPkRhdGFiYXNlPC90ZXh0PjwvZz48IS0tZW50aXR5IE1vZGVsLS0+PGcgaWQ9ImVsZW1fTW9kZWwiPjxlbGxpcHNlIGN4PSIxODcuNTYzNiIgY3k9IjMxNy40ODQ0IiBmaWxsPSIjRjFGMUYxIiByeD0iMTIiIHJ5PSIxMiIgc3R5bGU9InN0cm9rZTojMTgxODE4O3N0cm9rZS13aWR0aDowLjU7Ii8+PHBvbHlnb24gZmlsbD0iIzE4MTgxOCIgcG9pbnRzPSIxODMuNTYzNiwzMDUuNDg0NCwxODkuNTYzNiwzMDAuNDg0NCwxODcuNTYzNiwzMDUuNDg0NCwxODkuNTYzNiwzMTAuNDg0NCwxODMuNTYzNiwzMDUuNDg0NCIgc3R5bGU9InN0cm9rZTojMTgxODE4O3N0cm9rZS13aWR0aDoxLjA7Ii8+PHRleHQgZmlsbD0iIzAwMDAwMCIgZm9udC1mYW1pbHk9InNhbnMtc2VyaWYiIGZvbnQtc2l6ZT0iMTQiIGxlbmd0aEFkanVzdD0ic3BhY2luZyIgdGV4dExlbmd0aD0iOTEiIHg9IjE0Mi4wNjM2IiB5PSIzNDYuNzE4OCI+VHJhaW5lZCBNb2RlbDwvdGV4dD48L2c+PGcgaWQ9ImVsZW1fTnV0cmlQcmVkaWN0Ij48ZWxsaXBzZSBjeD0iMjAyLjQ1MTQiIGN5PSIyMTEuNjYxOSIgZmlsbD0iI0YxRjFGMSIgcng9IjYzLjg4NzgiIHJ5PSIxNS4xNzc2IiBzdHlsZT0ic3Ryb2tlOiMxODE4MTg7c3Ryb2tlLXdpZHRoOjAuNTsiLz48dGV4dCBmaWxsPSIjMDAwMDAwIiBmb250LWZhbWlseT0ic2Fucy1zZXJpZiIgZm9udC1zaXplPSIxNCIgbGVuZ3RoQWRqdXN0PSJzcGFjaW5nIiB0ZXh0TGVuZ3RoPSI4NCIgeD0iMTYwLjQ1MTQiIHk9IjIxNS40MDQxIj5OdXRyaVByZWRpY3Q8L3RleHQ+PC9nPjwhLS1lbnRpdHkgVXNlci0tPjxnIGlkPSJlbGVtX1VzZXIiPjxlbGxpcHNlIGN4PSIyMjIuNTYzNiIgY3k9IjQzMy45ODQ0IiBmaWxsPSIjRjFGMUYxIiByeD0iOCIgcnk9IjgiIHN0eWxlPSJzdHJva2U6IzE4MTgxODtzdHJva2Utd2lkdGg6MC41OyIvPjxwYXRoIGQ9Ik0yMjIuNTYzNiw0NDEuOTg0NCBMMjIyLjU2MzYsNDY4Ljk4NDQgTTIwOS41NjM2LDQ0OS45ODQ0IEwyMzUuNTYzNiw0NDkuOTg0NCBNMjIyLjU2MzYsNDY4Ljk4NDQgTDIwOS41NjM2LDQ4My45ODQ0IE0yMjIuNTYzNiw0NjguOTg0NCBMMjM1LjU2MzYsNDgzLjk4NDQgIiBmaWxsPSJub25lIiBzdHlsZT0ic3Ryb2tlOiMxODE4MTg7c3Ryb2tlLXdpZHRoOjAuNTsiLz48dGV4dCBmaWxsPSIjMDAwMDAwIiBmb250LWZhbWlseT0ic2Fucy1zZXJpZiIgZm9udC1zaXplPSIxNCIgbGVuZ3RoQWRqdXN0PSJzcGFjaW5nIiB0ZXh0TGVuZ3RoPSIyOCIgeD0iMjA4LjU2MzYiIHk9IjQ5OC43MTg4Ij5Vc2VyPC90ZXh0PjwvZz48IS0tZW50aXR5IEFkbWluaXN0cmF0b3ItLT48ZyBpZD0iZWxlbV9BZG1pbmlzdHJhdG9yIj48ZWxsaXBzZSBjeD0iMjAyLjU2MzYiIGN5PSI0OS45ODQ0IiBmaWxsPSIjRjFGMUYxIiByeD0iOCIgcnk9IjgiIHN0eWxlPSJzdHJva2U6IzE4MTgxODtzdHJva2Utd2lkdGg6MC41OyIvPjxwYXRoIGQ9Ik0yMDIuNTYzNiw1Ny45ODQ0IEwyMDIuNTYzNiw4NC45ODQ0IE0xODkuNTYzNiw2NS45ODQ0IEwyMTUuNTYzNiw2NS45ODQ0IE0yMDIuNTYzNiw4NC45ODQ0IEwxODkuNTYzNiw5OS45ODQ0IE0yMDIuNTYzNiw4NC45ODQ0IEwyMTUuNTYzNiw5OS45ODQ0ICIgZmlsbD0ibm9uZSIgc3R5bGU9InN0cm9rZTojMTgxODE4O3N0cm9rZS13aWR0aDowLjU7Ii8+PHRleHQgZmlsbD0iIzAwMDAwMCIgZm9udC1mYW1pbHk9InNhbnMtc2VyaWYiIGZvbnQtc2l6ZT0iMTQiIGxlbmd0aEFkanVzdD0ic3BhY2luZyIgdGV4dExlbmd0aD0iOTIiIHg9IjE1Ni41NjM2IiB5PSIxMTQuNzE4OCI+QWRtaW5pc3RyYXRvcjwvdGV4dD48L2c+PCEtLWVudGl0eSBXZWF0aGVyQVBJLS0+PGcgaWQ9ImVsZW1fV2VhdGhlckFQSSI+PGVsbGlwc2UgY3g9IjQyNi41NjM2IiBjeT0iMzE3LjQ4NDQiIGZpbGw9IiNGMUYxRjEiIHJ4PSIxMiIgcnk9IjEyIiBzdHlsZT0ic3Ryb2tlOiMxODE4MTg7c3Ryb2tlLXdpZHRoOjAuNTsiLz48cG9seWdvbiBmaWxsPSIjMTgxODE4IiBwb2ludHM9IjQyMi41NjM2LDMwNS40ODQ0LDQyOC41NjM2LDMwMC40ODQ0LDQyNi41NjM2LDMwNS40ODQ0LDQyOC41NjM2LDMxMC40ODQ0LDQyMi41NjM2LDMwNS40ODQ0IiBzdHlsZT0ic3Ryb2tlOiMxODE4MTg7c3Ryb2tlLXdpZHRoOjEuMDsiLz48dGV4dCBmaWxsPSIjMDAwMDAwIiBmb250LWZhbWlseT0ic2Fucy1zZXJpZiIgZm9udC1zaXplPSIxNCIgbGVuZ3RoQWRqdXN0PSJzcGFjaW5nIiB0ZXh0TGVuZ3RoPSIxNDAiIHg9IjM1Ni41NjM2IiB5PSIzNDYuNzE4OCI+RXh0ZXJuYWwgV2VhdGhlciBBUEk8L3RleHQ+PC9nPjwhLS1saW5rIFVzZXIgdG8gTnV0cmlQcmVkaWN0LS0+PGcgaWQ9ImxpbmtfVXNlcl9OdXRyaVByZWRpY3QiPjxwYXRoIGQ9Ik0yMzYuNzMzNiw0NTEuMzQ0NCBDMjUxLjE1MzYsNDM5LjUzNDQgMjcyLjYzMzYsNDE5LjAwNDQgMjgxLjU2MzYsMzk1LjQ4NDQgQzMwMy40OTM2LDMzNy43MjQ0IDMxMi44NjM2LDMwOS43NDQ0IDI4MS41NjM2LDI1Ni40ODQ0IEMyNzIuNDkzNiwyNDEuMDU0NCAyNjEuMzM3NSwyMzMuMDMzMyAyNDUuNjQ3NSwyMjYuMjIzMyAiIGZpbGw9Im5vbmUiIGlkPSJVc2VyLXRvLU51dHJpUHJlZGljdCIgc3R5bGU9InN0cm9rZTojMTgxODE4O3N0cm9rZS13aWR0aDoxLjA7Ii8+PHBvbHlnb24gZmlsbD0iIzE4MTgxOCIgcG9pbnRzPSIyNDAuMTQzNiwyMjMuODM0NCwyNDYuODA2OSwyMzEuMDg3LDI0NC43MzAyLDIyNS44MjUxLDI0OS45OTIxLDIyMy43NDg0LDI0MC4xNDM2LDIyMy44MzQ0IiBzdHlsZT0ic3Ryb2tlOiMxODE4MTg7c3Ryb2tlLXdpZHRoOjEuMDsiLz48L2c+PCEtLWxpbmsgQWRtaW5pc3RyYXRvciB0byBOdXRyaVByZWRpY3QtLT48ZyBpZD0ibGlua19BZG1pbmlzdHJhdG9yX051dHJpUHJlZGljdCI+PHBhdGggZD0iTTIwMi41NjM2LDExNi42ODQ0IEMyMDIuNTYzNiwxNDMuMDY0NCAyMDIuNTYzNiwxNzEuMjE0NCAyMDIuNTYzNiwxOTAuMTg0NCAiIGZpbGw9Im5vbmUiIGlkPSJBZG1pbmlzdHJhdG9yLXRvLU51dHJpUHJlZGljdCIgc3R5bGU9InN0cm9rZTojMTgxODE4O3N0cm9rZS13aWR0aDoxLjA7Ii8+PHBvbHlnb24gZmlsbD0iIzE4MTgxOCIgcG9pbnRzPSIyMDIuNTYzNiwxOTYuMTg0NCwyMDYuNTYzNiwxODcuMTg0NCwyMDIuNTYzNiwxOTEuMTg0NCwxOTguNTYzNiwxODcuMTg0NCwyMDIuNTYzNiwxOTYuMTg0NCIgc3R5bGU9InN0cm9rZTojMTgxODE4O3N0cm9rZS13aWR0aDoxLjA7Ii8+PC9nPjwhLS1saW5rIE51dHJpUHJlZGljdCB0byBEQi0tPjxnIGlkPSJsaW5rX051dHJpUHJlZGljdF9EQiI+PHBhdGggZD0iTTE1NS43NTM2LDIyMS43MjQ0IEMxMzMuNzkzNiwyMjguMTg0NCAxMDguNzMzNiwyMzguOTE0NCA5MS41NjM2LDI1Ni40ODQ0IEM3OS4zMzM2LDI2OC45OTQ0IDc0LjI5NDYsMjgyLjE1NDkgNzEuMDY0NiwyOTYuODE0OSAiIGZpbGw9Im5vbmUiIGlkPSJOdXRyaVByZWRpY3QtdG8tREIiIHN0eWxlPSJzdHJva2U6IzE4MTgxODtzdHJva2Utd2lkdGg6MS4wOyIvPjxwb2x5Z29uIGZpbGw9IiMxODE4MTgiIHBvaW50cz0iNjkuNzczNiwzMDIuNjc0NCw3NS42MTY0LDI5NC43NDU4LDcwLjg0OTQsMjk3Ljc5MTUsNjcuODAzOCwyOTMuMDI0NSw2OS43NzM2LDMwMi42NzQ0IiBzdHlsZT0ic3Ryb2tlOiMxODE4MTg7c3Ryb2tlLXdpZHRoOjEuMDsiLz48dGV4dCBmaWxsPSIjMDAwMDAwIiBmb250LWZhbWlseT0ic2Fucy1zZXJpZiIgZm9udC1zaXplPSIxMyIgbGVuZ3RoQWRqdXN0PSJzcGFjaW5nIiB0ZXh0TGVuZ3RoPSI4MyIgeD0iOTIuNTYzNiIgeT0iMjY5Ljc3MzQiPk1hbmFnZXMgRGF0YTwvdGV4dD48L2c+PCEtLWxpbmsgTnV0cmlQcmVkaWN0IHRvIE1vZGVsLS0+PGcgaWQ9ImxpbmtfTnV0cmlQcmVkaWN0X01vZGVsIj48cGF0aCBkPSJNMTk1LjUwMzYsMjI2Ljc1NDQgQzE5MS43MzM2LDIzNS4xODQ0IDE4Ny40ODM2LDI0Ni4xODQ0IDE4NS41NjM2LDI1Ni40ODQ0IEMxODIuODEzNiwyNzEuMjM0NCAxODIuNzc0MSwyODIuMTM4NyAxODMuOTY0MSwyOTUuMzE4NyAiIGZpbGw9Im5vbmUiIGlkPSJOdXRyaVByZWRpY3QtdG8tTW9kZWwiIHN0eWxlPSJzdHJva2U6IzE4MTgxODtzdHJva2Utd2lkdGg6MS4wOyIvPjxwb2x5Z29uIGZpbGw9IiMxODE4MTgiIHBvaW50cz0iMTg0LjUwMzYsMzAxLjI5NDQsMTg3LjY3ODEsMjkxLjk3MTEsMTg0LjA1NCwyOTYuMzE0NiwxNzkuNzEwNSwyOTIuNjkwNSwxODQuNTAzNiwzMDEuMjk0NCIgc3R5bGU9InN0cm9rZTojMTgxODE4O3N0cm9rZS13aWR0aDoxLjA7Ii8+PHRleHQgZmlsbD0iIzAwMDAwMCIgZm9udC1mYW1pbHk9InNhbnMtc2VyaWYiIGZvbnQtc2l6ZT0iMTMiIGxlbmd0aEFkanVzdD0ic3BhY2luZyIgdGV4dExlbmd0aD0iOTAiIHg9IjE4Ni41NjM2IiB5PSIyNjkuNzczNCI+TWFuYWdlcyBNb2RlbDwvdGV4dD48L2c+PCEtLWxpbmsgTW9kZWwgdG8gVXNlci0tPjxnIGlkPSJsaW5rX01vZGVsX1VzZXIiPjxwYXRoIGQ9Ik0xNTYuODEzNiwzNDguNjY0NCBDMTQzLjA3MzYsMzYxLjczNDQgMTMxLjU2MzYsMzc4LjgyNDQgMTM5LjU2MzYsMzk1LjQ4NDQgQzE1My44NzM2LDQyNS4yNzQ0IDE4My4zNzQsNDQzLjI2NzQgMjAzLjA1NCw0NTIuOTg3NCAiIGZpbGw9Im5vbmUiIGlkPSJNb2RlbC10by1Vc2VyIiBzdHlsZT0ic3Ryb2tlOiMxODE4MTg7c3Ryb2tlLXdpZHRoOjEuMDsiLz48cG9seWdvbiBmaWxsPSIjMTgxODE4IiBwb2ludHM9IjIwOC40MzM2LDQ1NS42NDQ0LDIwMi4xMzU1LDQ0OC4wNzI1LDIwMy45NTA2LDQ1My40MzAyLDE5OC41OTI4LDQ1NS4yNDUzLDIwOC40MzM2LDQ1NS42NDQ0IiBzdHlsZT0ic3Ryb2tlOiMxODE4MTg7c3Ryb2tlLXdpZHRoOjEuMDsiLz48dGV4dCBmaWxsPSIjMDAwMDAwIiBmb250LWZhbWlseT0ic2Fucy1zZXJpZiIgZm9udC1zaXplPSIxMyIgbGVuZ3RoQWRqdXN0PSJzcGFjaW5nIiB0ZXh0TGVuZ3RoPSIxMzYiIHg9IjE0MC41NjM2IiB5PSIzOTMuNzczNCI+UHJvdmlkZXMgUHJlZGljdGlvbnM8L3RleHQ+PC9nPjwhLS1saW5rIE51dHJpUHJlZGljdCB0byBXZWF0aGVyQVBJLS0+PGcgaWQ9ImxpbmtfTnV0cmlQcmVkaWN0X1dlYXRoZXJBUEkiPjxwYXRoIGQ9Ik0yNDIuNjEzNiwyMjMuMjc0NCBDMjY4LjIwMzYsMjMwLjkxNDQgMzAxLjY5MzYsMjQyLjMwNDQgMzI5LjU2MzYsMjU2LjQ4NDQgQzM1NC4yNDM2LDI2OS4wNDQ0IDM3NS4xMDQsMjgzLjQ5NDEgMzkzLjgxNCwyOTcuNzc0MSAiIGZpbGw9Im5vbmUiIGlkPSJOdXRyaVByZWRpY3QtdG8tV2VhdGhlckFQSSIgc3R5bGU9InN0cm9rZTojMTgxODE4O3N0cm9rZS13aWR0aDoxLjA7Ii8+PHBvbHlnb24gZmlsbD0iIzE4MTgxOCIgcG9pbnRzPSIzOTguNTgzNiwzMDEuNDE0NCwzOTMuODU2MSwyOTIuNzc0MywzOTQuNjA5LDI5OC4zODA4LDM4OS4wMDI0LDI5OS4xMzM3LDM5OC41ODM2LDMwMS40MTQ0IiBzdHlsZT0ic3Ryb2tlOiMxODE4MTg7c3Ryb2tlLXdpZHRoOjEuMDsiLz48dGV4dCBmaWxsPSIjMDAwMDAwIiBmb250LWZhbWlseT0ic2Fucy1zZXJpZiIgZm9udC1zaXplPSIxMyIgbGVuZ3RoQWRqdXN0PSJzcGFjaW5nIiB0ZXh0TGVuZ3RoPSIxNDQiIHg9IjM1NS41NjM2IiB5PSIyNjkuNzczNCI+UmVxdWVzdHMgV2VhdGhlciBEYXRhPC90ZXh0PjwvZz48IS0tU1JDPVtSUDB6Sm1DbjM0M3RfMGVoS3BqS09odTFZSEFHYTJXd3lJNWNTeDVBZjVtWTc1ekxYRlpsLURBWmpCSVB4Rlo1Vmg0NFlHSnRqQTQ4NS0xa3RVbXc5dzZqVzBrdVBrcGQzSm1DbWc1YnlnNEpVRmVpR2hxbnM0YmNVMmQ0S3RaYi12MTI0S1JESkFUVEU0VW1EcmlYSlhaWGJMM1VJUmRzcFdBTXRybkpxeUt5VUIxZHZiWnVDZzM3ZS0wUjVXQmhmZ1pzU0NqUXRHenhQV285RkFvb2ZyWTk2YkxlVGpYLVJod0Q2VUxYaVJaeU5waHdvSmRXSTdJaWtvS3FpQ0E0UXI4ZkRKbjVnaVcxakhDcGstaUhnM09EajltdG1JaW1GR3V2YlREa1Z5bEo5dV9xQ0wySF9LZ2htR3kwXS0tPjwvZz48L3N2Zz4=;" vertex="1" parent="1">
            <mxGeometry x="260" y="160" width="507" height="507" as="geometry" />
          </mxCell>
        </UserObject>
      </root>
    </mxGraphModel>
  </diagram>
  <diagram id="5KexkQsAsLjitv9zcOjs" name="DFD">
    <mxGraphModel dx="1217" dy="652" grid="1" gridSize="10" guides="1" tooltips="1" connect="1" arrows="1" fold="1" page="1" pageScale="1" pageWidth="900" pageHeight="1600" math="0" shadow="0">
      <root>
        <mxCell id="0" />
        <mxCell id="1" parent="0" />
        <UserObject label="" plantUmlData="{&quot;data&quot;:&quot;@startuml\n\nleft to right direction\ntitle Level 1 DFD: NutriPredict System (In-Depth)\n\nactor User\nactor Administrator\ncontrol \&quot;External Weather API\&quot; as WeatherAPI\nrectangle \&quot;NutriPredict System\&quot; {\n    database \&quot;User Database\&quot; as UserDB\n    database \&quot;Weather Database\&quot; as WeatherDB\n    database \&quot;Crop Yield Database\&quot; as CropDB\n    database \&quot;Malnutrition Database\&quot; as MalnutritionDB\n    control \&quot;User Module\&quot; as UserModule\n    control \&quot;Administrator Module\&quot; as AdminModule\n    control \&quot;Data Management\&quot; as DataManagement\n    control \&quot;Model Management\&quot; as ModelManagement\n    control \&quot;Prediction Generation\&quot; as PredictionGeneration\n}\n\nUser --&gt; UserModule : Initiates Request\nAdministrator --&gt; AdminModule : Authenticates\nUserModule --&gt; WeatherDB : Retrieves Weather Data\nUser &lt;-- UserModule : Views Weather Data\nUserModule --&gt; CropDB : Retrieves Crop Yield Data\nUser &lt;-- UserModule : Views Crop Yield Data\nUserModule --&gt; MalnutritionDB : Retrieves Malnutrition Statistics\nUser &lt;-- UserModule : Views Malnutrition Statistics\nAdminModule --&gt; DataManagement : Manages Data\nAdminModule --&gt; ModelManagement : Manages Model\nAdminModule --&gt; PredictionGeneration : Requests Prediction\nUserModule --&gt; PredictionGeneration : Requests Prediction\nUserModule &lt;-- PredictionGeneration : Provide Prediction\nUserModule --&gt; User : Provide Prediction\nPredictionGeneration --&gt; ModelManagement : Provides Data\nModelManagement --&gt; PredictionGeneration : Provides Trained Model\nUserModule --&gt; WeatherAPI : Requests Weather Data\nWeatherAPI --&gt; UserModule : Sends Weather Data\nDataManagement --&gt;MalnutritionDB : Store/Retrieve\nDataManagement --&gt;CropDB : Store/Retrieve\nDataManagement --&gt;WeatherDB : Store/Retrieve\nAdminModule --&gt; UserDB: Store/Retrieve\n\n@enduml\n&quot;,&quot;format&quot;:&quot;svg&quot;}" id="jQ3I02tFCXXyzic6kPbe-1">
          <mxCell style="shape=image;noLabel=1;verticalAlign=top;aspect=fixed;imageAspect=0;image=data:image/svg+xml,PD94bWwgdmVyc2lvbj0iMS4wIiBlbmNvZGluZz0idXMtYXNjaWkiIHN0YW5kYWxvbmU9Im5vIj8+PHN2ZyB4bWxucz0iaHR0cDovL3d3dy53My5vcmcvMjAwMC9zdmciIHhtbG5zOnhsaW5rPSJodHRwOi8vd3d3LnczLm9yZy8xOTk5L3hsaW5rIiBjb250ZW50U3R5bGVUeXBlPSJ0ZXh0L2NzcyIgaGVpZ2h0PSI4NzBweCIgcHJlc2VydmVBc3BlY3RSYXRpbz0ibm9uZSIgc3R5bGU9IndpZHRoOjEyNDRweDtoZWlnaHQ6ODcwcHg7YmFja2dyb3VuZDojRkZGRkZGOyIgdmVyc2lvbj0iMS4xIiB2aWV3Qm94PSIwIDAgMTI0NCA4NzAiIHdpZHRoPSIxMjQ0cHgiIHpvb21BbmRQYW49Im1hZ25pZnkiPjxkZWZzLz48Zz48dGV4dCBmaWxsPSIjMDAwMDAwIiBmb250LWZhbWlseT0ic2Fucy1zZXJpZiIgZm9udC1zaXplPSIxNCIgZm9udC13ZWlnaHQ9ImJvbGQiIGxlbmd0aEFkanVzdD0ic3BhY2luZyIgdGV4dExlbmd0aD0iMzA0IiB4PSI0NjMiIHk9IjIzLjIzNDQiPkxldmVsIDEgREZEOiBOdXRyaVByZWRpY3QgU3lzdGVtIChJbi1EZXB0aCk8L3RleHQ+PCEtLWNsdXN0ZXIgTnV0cmlQcmVkaWN0IFN5c3RlbS0tPjxnIGlkPSJjbHVzdGVyX051dHJpUHJlZGljdCBTeXN0ZW0iPjxyZWN0IGZpbGw9Im5vbmUiIGhlaWdodD0iNjAxIiByeD0iMi41IiByeT0iMi41IiBzdHlsZT0ic3Ryb2tlOiMxODE4MTg7c3Ryb2tlLXdpZHRoOjEuMDsiIHdpZHRoPSIxMDA1IiB4PSIyMzMiIHk9IjEzMi4zNTQ0Ii8+PHRleHQgZmlsbD0iIzAwMDAwMCIgZm9udC1mYW1pbHk9InNhbnMtc2VyaWYiIGZvbnQtc2l6ZT0iMTQiIGZvbnQtd2VpZ2h0PSJib2xkIiBsZW5ndGhBZGp1c3Q9InNwYWNpbmciIHRleHRMZW5ndGg9IjEzNCIgeD0iNjY4LjUiIHk9IjE0Ny41ODg4Ij5OdXRyaVByZWRpY3QgU3lzdGVtPC90ZXh0PjwvZz48IS0tZW50aXR5IFVzZXJEQi0tPjxnIGlkPSJlbGVtX1VzZXJEQiI+PHBhdGggZD0iTTY1Myw2MDAuMzU0NCBDNjUzLDU5MC4zNTQ0IDcwOC41LDU5MC4zNTQ0IDcwOC41LDU5MC4zNTQ0IEM3MDguNSw1OTAuMzU0NCA3NjQsNTkwLjM1NDQgNzY0LDYwMC4zNTQ0IEw3NjQsNjI0LjMzODggQzc2NCw2MzQuMzM4OCA3MDguNSw2MzQuMzM4OCA3MDguNSw2MzQuMzM4OCBDNzA4LjUsNjM0LjMzODggNjUzLDYzNC4zMzg4IDY1Myw2MjQuMzM4OCBMNjUzLDYwMC4zNTQ0ICIgZmlsbD0iI0YxRjFGMSIgc3R5bGU9InN0cm9rZTojMTgxODE4O3N0cm9rZS13aWR0aDowLjU7Ii8+PHBhdGggZD0iTTY1Myw2MDAuMzU0NCBDNjUzLDYxMC4zNTQ0IDcwOC41LDYxMC4zNTQ0IDcwOC41LDYxMC4zNTQ0IEM3MDguNSw2MTAuMzU0NCA3NjQsNjEwLjM1NDQgNzY0LDYwMC4zNTQ0ICIgZmlsbD0ibm9uZSIgc3R5bGU9InN0cm9rZTojMTgxODE4O3N0cm9rZS13aWR0aDowLjU7Ii8+PHRleHQgZmlsbD0iIzAwMDAwMCIgZm9udC1mYW1pbHk9InNhbnMtc2VyaWYiIGZvbnQtc2l6ZT0iMTQiIGxlbmd0aEFkanVzdD0ic3BhY2luZyIgdGV4dExlbmd0aD0iOTEiIHg9IjY2MyIgeT0iNjI3LjU4ODgiPlVzZXIgRGF0YWJhc2U8L3RleHQ+PC9nPjwhLS1lbnRpdHkgV2VhdGhlckRCLS0+PGcgaWQ9ImVsZW1fV2VhdGhlckRCIj48cGF0aCBkPSJNMTA3Mi41LDMwNi4zNTQ0IEMxMDcyLjUsMjk2LjM1NDQgMTEzOC41LDI5Ni4zNTQ0IDExMzguNSwyOTYuMzU0NCBDMTEzOC41LDI5Ni4zNTQ0IDEyMDQuNSwyOTYuMzU0NCAxMjA0LjUsMzA2LjM1NDQgTDEyMDQuNSwzMzAuMzM4OCBDMTIwNC41LDM0MC4zMzg4IDExMzguNSwzNDAuMzM4OCAxMTM4LjUsMzQwLjMzODggQzExMzguNSwzNDAuMzM4OCAxMDcyLjUsMzQwLjMzODggMTA3Mi41LDMzMC4zMzg4IEwxMDcyLjUsMzA2LjM1NDQgIiBmaWxsPSIjRjFGMUYxIiBzdHlsZT0ic3Ryb2tlOiMxODE4MTg7c3Ryb2tlLXdpZHRoOjAuNTsiLz48cGF0aCBkPSJNMTA3Mi41LDMwNi4zNTQ0IEMxMDcyLjUsMzE2LjM1NDQgMTEzOC41LDMxNi4zNTQ0IDExMzguNSwzMTYuMzU0NCBDMTEzOC41LDMxNi4zNTQ0IDEyMDQuNSwzMTYuMzU0NCAxMjA0LjUsMzA2LjM1NDQgIiBmaWxsPSJub25lIiBzdHlsZT0ic3Ryb2tlOiMxODE4MTg7c3Ryb2tlLXdpZHRoOjAuNTsiLz48dGV4dCBmaWxsPSIjMDAwMDAwIiBmb250LWZhbWlseT0ic2Fucy1zZXJpZiIgZm9udC1zaXplPSIxNCIgbGVuZ3RoQWRqdXN0PSJzcGFjaW5nIiB0ZXh0TGVuZ3RoPSIxMTIiIHg9IjEwODIuNSIgeT0iMzMzLjU4ODgiPldlYXRoZXIgRGF0YWJhc2U8L3RleHQ+PC9nPjwhLS1lbnRpdHkgQ3JvcERCLS0+PGcgaWQ9ImVsZW1fQ3JvcERCIj48cGF0aCBkPSJNMTA2MiwxOTkuMzU0NCBDMTA2MiwxODkuMzU0NCAxMTM4LjUsMTg5LjM1NDQgMTEzOC41LDE4OS4zNTQ0IEMxMTM4LjUsMTg5LjM1NDQgMTIxNSwxODkuMzU0NCAxMjE1LDE5OS4zNTQ0IEwxMjE1LDIyMy4zMzg4IEMxMjE1LDIzMy4zMzg4IDExMzguNSwyMzMuMzM4OCAxMTM4LjUsMjMzLjMzODggQzExMzguNSwyMzMuMzM4OCAxMDYyLDIzMy4zMzg4IDEwNjIsMjIzLjMzODggTDEwNjIsMTk5LjM1NDQgIiBmaWxsPSIjRjFGMUYxIiBzdHlsZT0ic3Ryb2tlOiMxODE4MTg7c3Ryb2tlLXdpZHRoOjAuNTsiLz48cGF0aCBkPSJNMTA2MiwxOTkuMzU0NCBDMTA2MiwyMDkuMzU0NCAxMTM4LjUsMjA5LjM1NDQgMTEzOC41LDIwOS4zNTQ0IEMxMTM4LjUsMjA5LjM1NDQgMTIxNSwyMDkuMzU0NCAxMjE1LDE5OS4zNTQ0ICIgZmlsbD0ibm9uZSIgc3R5bGU9InN0cm9rZTojMTgxODE4O3N0cm9rZS13aWR0aDowLjU7Ii8+PHRleHQgZmlsbD0iIzAwMDAwMCIgZm9udC1mYW1pbHk9InNhbnMtc2VyaWYiIGZvbnQtc2l6ZT0iMTQiIGxlbmd0aEFkanVzdD0ic3BhY2luZyIgdGV4dExlbmd0aD0iMTMzIiB4PSIxMDcyIiB5PSIyMjYuNTg4OCI+Q3JvcCBZaWVsZCBEYXRhYmFzZTwvdGV4dD48L2c+PCEtLWVudGl0eSBNYWxudXRyaXRpb25EQi0tPjxnIGlkPSJlbGVtX01hbG51dHJpdGlvbkRCIj48cGF0aCBkPSJNMTA1NSw0MjguMzU0NCBDMTA1NSw0MTguMzU0NCAxMTM4LjUsNDE4LjM1NDQgMTEzOC41LDQxOC4zNTQ0IEMxMTM4LjUsNDE4LjM1NDQgMTIyMiw0MTguMzU0NCAxMjIyLDQyOC4zNTQ0IEwxMjIyLDQ1Mi4zMzg4IEMxMjIyLDQ2Mi4zMzg4IDExMzguNSw0NjIuMzM4OCAxMTM4LjUsNDYyLjMzODggQzExMzguNSw0NjIuMzM4OCAxMDU1LDQ2Mi4zMzg4IDEwNTUsNDUyLjMzODggTDEwNTUsNDI4LjM1NDQgIiBmaWxsPSIjRjFGMUYxIiBzdHlsZT0ic3Ryb2tlOiMxODE4MTg7c3Ryb2tlLXdpZHRoOjAuNTsiLz48cGF0aCBkPSJNMTA1NSw0MjguMzU0NCBDMTA1NSw0MzguMzU0NCAxMTM4LjUsNDM4LjM1NDQgMTEzOC41LDQzOC4zNTQ0IEMxMTM4LjUsNDM4LjM1NDQgMTIyMiw0MzguMzU0NCAxMjIyLDQyOC4zNTQ0ICIgZmlsbD0ibm9uZSIgc3R5bGU9InN0cm9rZTojMTgxODE4O3N0cm9rZS13aWR0aDowLjU7Ii8+PHRleHQgZmlsbD0iIzAwMDAwMCIgZm9udC1mYW1pbHk9InNhbnMtc2VyaWYiIGZvbnQtc2l6ZT0iMTQiIGxlbmd0aEFkanVzdD0ic3BhY2luZyIgdGV4dExlbmd0aD0iMTQ3IiB4PSIxMDY1IiB5PSI0NTUuNTg4OCI+TWFsbnV0cml0aW9uIERhdGFiYXNlPC90ZXh0PjwvZz48IS0tZW50aXR5IFVzZXJNb2R1bGUtLT48ZyBpZD0iZWxlbV9Vc2VyTW9kdWxlIj48ZWxsaXBzZSBjeD0iNzA4LjUiIGN5PSIzNjIuODU0NCIgZmlsbD0iI0YxRjFGMSIgcng9IjEyIiByeT0iMTIiIHN0eWxlPSJzdHJva2U6IzE4MTgxODtzdHJva2Utd2lkdGg6MC41OyIvPjxwb2x5Z29uIGZpbGw9IiMxODE4MTgiIHBvaW50cz0iNzA0LjUsMzUwLjg1NDQsNzEwLjUsMzQ1Ljg1NDQsNzA4LjUsMzUwLjg1NDQsNzEwLjUsMzU1Ljg1NDQsNzA0LjUsMzUwLjg1NDQiIHN0eWxlPSJzdHJva2U6IzE4MTgxODtzdHJva2Utd2lkdGg6MS4wOyIvPjx0ZXh0IGZpbGw9IiMwMDAwMDAiIGZvbnQtZmFtaWx5PSJzYW5zLXNlcmlmIiBmb250LXNpemU9IjE0IiBsZW5ndGhBZGp1c3Q9InNwYWNpbmciIHRleHRMZW5ndGg9Ijc3IiB4PSI2NzAiIHk9IjM5Mi4wODg4Ij5Vc2VyIE1vZHVsZTwvdGV4dD48L2c+PCEtLWVudGl0eSBBZG1pbk1vZHVsZS0tPjxnIGlkPSJlbGVtX0FkbWluTW9kdWxlIj48ZWxsaXBzZSBjeD0iMzE5LjUiIGN5PSI1NDEuODU0NCIgZmlsbD0iI0YxRjFGMSIgcng9IjEyIiByeT0iMTIiIHN0eWxlPSJzdHJva2U6IzE4MTgxODtzdHJva2Utd2lkdGg6MC41OyIvPjxwb2x5Z29uIGZpbGw9IiMxODE4MTgiIHBvaW50cz0iMzE1LjUsNTI5Ljg1NDQsMzIxLjUsNTI0Ljg1NDQsMzE5LjUsNTI5Ljg1NDQsMzIxLjUsNTM0Ljg1NDQsMzE1LjUsNTI5Ljg1NDQiIHN0eWxlPSJzdHJva2U6IzE4MTgxODtzdHJva2Utd2lkdGg6MS4wOyIvPjx0ZXh0IGZpbGw9IiMwMDAwMDAiIGZvbnQtZmFtaWx5PSJzYW5zLXNlcmlmIiBmb250LXNpemU9IjE0IiBsZW5ndGhBZGp1c3Q9InNwYWNpbmciIHRleHRMZW5ndGg9IjE0MSIgeD0iMjQ5IiB5PSI1NzEuMDg4OCI+QWRtaW5pc3RyYXRvciBNb2R1bGU8L3RleHQ+PC9nPjwhLS1lbnRpdHkgRGF0YU1hbmFnZW1lbnQtLT48ZyBpZD0iZWxlbV9EYXRhTWFuYWdlbWVudCI+PGVsbGlwc2UgY3g9IjcwOC41IiBjeT0iMjgwLjg1NDQiIGZpbGw9IiNGMUYxRjEiIHJ4PSIxMiIgcnk9IjEyIiBzdHlsZT0ic3Ryb2tlOiMxODE4MTg7c3Ryb2tlLXdpZHRoOjAuNTsiLz48cG9seWdvbiBmaWxsPSIjMTgxODE4IiBwb2ludHM9IjcwNC41LDI2OC44NTQ0LDcxMC41LDI2My44NTQ0LDcwOC41LDI2OC44NTQ0LDcxMC41LDI3My44NTQ0LDcwNC41LDI2OC44NTQ0IiBzdHlsZT0ic3Ryb2tlOiMxODE4MTg7c3Ryb2tlLXdpZHRoOjEuMDsiLz48dGV4dCBmaWxsPSIjMDAwMDAwIiBmb250LWZhbWlseT0ic2Fucy1zZXJpZiIgZm9udC1zaXplPSIxNCIgbGVuZ3RoQWRqdXN0PSJzcGFjaW5nIiB0ZXh0TGVuZ3RoPSIxMDYiIHg9IjY1NS41IiB5PSIzMTAuMDg4OCI+RGF0YSBNYW5hZ2VtZW50PC90ZXh0PjwvZz48IS0tZW50aXR5IE1vZGVsTWFuYWdlbWVudC0tPjxnIGlkPSJlbGVtX01vZGVsTWFuYWdlbWVudCI+PGVsbGlwc2UgY3g9IjcwOC41IiBjeT0iNjg1Ljg1NDQiIGZpbGw9IiNGMUYxRjEiIHJ4PSIxMiIgcnk9IjEyIiBzdHlsZT0ic3Ryb2tlOiMxODE4MTg7c3Ryb2tlLXdpZHRoOjAuNTsiLz48cG9seWdvbiBmaWxsPSIjMTgxODE4IiBwb2ludHM9IjcwNC41LDY3My44NTQ0LDcxMC41LDY2OC44NTQ0LDcwOC41LDY3My44NTQ0LDcxMC41LDY3OC44NTQ0LDcwNC41LDY3My44NTQ0IiBzdHlsZT0ic3Ryb2tlOiMxODE4MTg7c3Ryb2tlLXdpZHRoOjEuMDsiLz48dGV4dCBmaWxsPSIjMDAwMDAwIiBmb250LWZhbWlseT0ic2Fucy1zZXJpZiIgZm9udC1zaXplPSIxNCIgbGVuZ3RoQWRqdXN0PSJzcGFjaW5nIiB0ZXh0TGVuZ3RoPSIxMTMiIHg9IjY1MiIgeT0iNzE1LjA4ODgiPk1vZGVsIE1hbmFnZW1lbnQ8L3RleHQ+PC9nPjwhLS1lbnRpdHkgUHJlZGljdGlvbkdlbmVyYXRpb24tLT48ZyBpZD0iZWxlbV9QcmVkaWN0aW9uR2VuZXJhdGlvbiI+PGVsbGlwc2UgY3g9IjExMzguNSIgY3k9IjU5OC44NTQ0IiBmaWxsPSIjRjFGMUYxIiByeD0iMTIiIHJ5PSIxMiIgc3R5bGU9InN0cm9rZTojMTgxODE4O3N0cm9rZS13aWR0aDowLjU7Ii8+PHBvbHlnb24gZmlsbD0iIzE4MTgxOCIgcG9pbnRzPSIxMTM0LjUsNTg2Ljg1NDQsMTE0MC41LDU4MS44NTQ0LDExMzguNSw1ODYuODU0NCwxMTQwLjUsNTkxLjg1NDQsMTEzNC41LDU4Ni44NTQ0IiBzdHlsZT0ic3Ryb2tlOiMxODE4MTg7c3Ryb2tlLXdpZHRoOjEuMDsiLz48dGV4dCBmaWxsPSIjMDAwMDAwIiBmb250LWZhbWlseT0ic2Fucy1zZXJpZiIgZm9udC1zaXplPSIxNCIgbGVuZ3RoQWRqdXN0PSJzcGFjaW5nIiB0ZXh0TGVuZ3RoPSIxNDciIHg9IjEwNjUiIHk9IjYyOC4wODg4Ij5QcmVkaWN0aW9uIEdlbmVyYXRpb248L3RleHQ+PC9nPjwhLS1lbnRpdHkgVXNlci0tPjxnIGlkPSJlbGVtX1VzZXIiPjxlbGxpcHNlIGN4PSIzMTkuNSIgY3k9IjUwLjM1NDQiIGZpbGw9IiNGMUYxRjEiIHJ4PSI4IiByeT0iOCIgc3R5bGU9InN0cm9rZTojMTgxODE4O3N0cm9rZS13aWR0aDowLjU7Ii8+PHBhdGggZD0iTTMxOS41LDU4LjM1NDQgTDMxOS41LDg1LjM1NDQgTTMwNi41LDY2LjM1NDQgTDMzMi41LDY2LjM1NDQgTTMxOS41LDg1LjM1NDQgTDMwNi41LDEwMC4zNTQ0IE0zMTkuNSw4NS4zNTQ0IEwzMzIuNSwxMDAuMzU0NCAiIGZpbGw9Im5vbmUiIHN0eWxlPSJzdHJva2U6IzE4MTgxODtzdHJva2Utd2lkdGg6MC41OyIvPjx0ZXh0IGZpbGw9IiMwMDAwMDAiIGZvbnQtZmFtaWx5PSJzYW5zLXNlcmlmIiBmb250LXNpemU9IjE0IiBsZW5ndGhBZGp1c3Q9InNwYWNpbmciIHRleHRMZW5ndGg9IjI4IiB4PSIzMDUuNSIgeT0iMTE1LjA4ODgiPlVzZXI8L3RleHQ+PC9nPjwhLS1lbnRpdHkgQWRtaW5pc3RyYXRvci0tPjxnIGlkPSJlbGVtX0FkbWluaXN0cmF0b3IiPjxlbGxpcHNlIGN4PSI1MiIgY3k9IjUyMC4zNTQ0IiBmaWxsPSIjRjFGMUYxIiByeD0iOCIgcnk9IjgiIHN0eWxlPSJzdHJva2U6IzE4MTgxODtzdHJva2Utd2lkdGg6MC41OyIvPjxwYXRoIGQ9Ik01Miw1MjguMzU0NCBMNTIsNTU1LjM1NDQgTTM5LDUzNi4zNTQ0IEw2NSw1MzYuMzU0NCBNNTIsNTU1LjM1NDQgTDM5LDU3MC4zNTQ0IE01Miw1NTUuMzU0NCBMNjUsNTcwLjM1NDQgIiBmaWxsPSJub25lIiBzdHlsZT0ic3Ryb2tlOiMxODE4MTg7c3Ryb2tlLXdpZHRoOjAuNTsiLz48dGV4dCBmaWxsPSIjMDAwMDAwIiBmb250LWZhbWlseT0ic2Fucy1zZXJpZiIgZm9udC1zaXplPSIxNCIgbGVuZ3RoQWRqdXN0PSJzcGFjaW5nIiB0ZXh0TGVuZ3RoPSI5MiIgeD0iNiIgeT0iNTg1LjA4ODgiPkFkbWluaXN0cmF0b3I8L3RleHQ+PC9nPjwhLS1lbnRpdHkgV2VhdGhlckFQSS0tPjxnIGlkPSJlbGVtX1dlYXRoZXJBUEkiPjxlbGxpcHNlIGN4PSIxMTM4LjUiIGN5PSI3NzQuODU0NCIgZmlsbD0iI0YxRjFGMSIgcng9IjEyIiByeT0iMTIiIHN0eWxlPSJzdHJva2U6IzE4MTgxODtzdHJva2Utd2lkdGg6MC41OyIvPjxwb2x5Z29uIGZpbGw9IiMxODE4MTgiIHBvaW50cz0iMTEzNC41LDc2Mi44NTQ0LDExNDAuNSw3NTcuODU0NCwxMTM4LjUsNzYyLjg1NDQsMTE0MC41LDc2Ny44NTQ0LDExMzQuNSw3NjIuODU0NCIgc3R5bGU9InN0cm9rZTojMTgxODE4O3N0cm9rZS13aWR0aDoxLjA7Ii8+PHRleHQgZmlsbD0iIzAwMDAwMCIgZm9udC1mYW1pbHk9InNhbnMtc2VyaWYiIGZvbnQtc2l6ZT0iMTQiIGxlbmd0aEFkanVzdD0ic3BhY2luZyIgdGV4dExlbmd0aD0iMTQwIiB4PSIxMDY4LjUiIHk9IjgwNC4wODg4Ij5FeHRlcm5hbCBXZWF0aGVyIEFQSTwvdGV4dD48L2c+PCEtLWxpbmsgVXNlciB0byBVc2VyTW9kdWxlLS0+PGcgaWQ9ImxpbmtfVXNlcl9Vc2VyTW9kdWxlIj48cGF0aCBkPSJNMzMzLjczLDg4LjUzNDQgQzM0OS44NiwxMDAuNTI0NCAzNzYuNjUsMTIzLjA5NDQgMzkwLDE0OS4zNTQ0IEM0MjguMTUsMjI0LjM4NDQgMzU5LjI2LDI3OC4wNzQ0IDQyMCwzMzYuMzU0NCBDNDg3LjQ2LDQwMS4wNzQ0IDYwMi43NTU1LDM5MC43NjA3IDY2My45OTU1LDM3OS43MDA3ICIgZmlsbD0ibm9uZSIgaWQ9IlVzZXItdG8tVXNlck1vZHVsZSIgc3R5bGU9InN0cm9rZTojMTgxODE4O3N0cm9rZS13aWR0aDoxLjA7Ii8+PHBvbHlnb24gZmlsbD0iIzE4MTgxOCIgcG9pbnRzPSI2NjkuOSwzNzguNjM0NCw2NjAuMzMyNCwzNzYuMjk3Niw2NjQuOTc5NiwzNzkuNTIzLDY2MS43NTQyLDM4NC4xNzAyLDY2OS45LDM3OC42MzQ0IiBzdHlsZT0ic3Ryb2tlOiMxODE4MTg7c3Ryb2tlLXdpZHRoOjEuMDsiLz48dGV4dCBmaWxsPSIjMDAwMDAwIiBmb250LWZhbWlseT0ic2Fucy1zZXJpZiIgZm9udC1zaXplPSIxMyIgbGVuZ3RoQWRqdXN0PSJzcGFjaW5nIiB0ZXh0TGVuZ3RoPSIxMTMiIHg9IjQ2MCIgeT0iMzM0LjY0MzQiPkluaXRpYXRlcyBSZXF1ZXN0PC90ZXh0PjwvZz48IS0tcmV2ZXJzZSBsaW5rIFVzZXIgdG8gVXNlck1vZHVsZS0tPjxnIGlkPSJsaW5rX1VzZXJfVXNlck1vZHVsZSI+PHBhdGggZD0iTTMzOS41MDQ1LDc1LjE2MzcgQzM4NS40MTQ1LDY1LjYyMzcgNTM0LjM3LDQxLjk4NDQgNjEzLDEyMC4zNTQ0IEM2NzkuNDcsMTg2LjU5NDQgNTkyLjA4LDI1MC41MjQ0IDY0MywzMjkuMzU0NCBDNjQ5LjU1LDMzOS40OTQ0IDY1OS42LDM0Ny42MDQ0IDY2OS44MiwzNTMuODU0NCAiIGZpbGw9Im5vbmUiIGlkPSJVc2VyLWJhY2t0by1Vc2VyTW9kdWxlIiBzdHlsZT0ic3Ryb2tlOiMxODE4MTg7c3Ryb2tlLXdpZHRoOjEuMDsiLz48cG9seWdvbiBmaWxsPSIjMTgxODE4IiBwb2ludHM9IjMzMy42Myw3Ni4zODQ0LDM0My4yNTU2LDc4LjQ2OTYsMzM4LjUyNTQsNzUuMzY3MSwzNDEuNjI4LDcwLjYzNywzMzMuNjMsNzYuMzg0NCIgc3R5bGU9InN0cm9rZTojMTgxODE4O3N0cm9rZS13aWR0aDoxLjA7Ii8+PHRleHQgZmlsbD0iIzAwMDAwMCIgZm9udC1mYW1pbHk9InNhbnMtc2VyaWYiIGZvbnQtc2l6ZT0iMTMiIGxlbmd0aEFkanVzdD0ic3BhY2luZyIgdGV4dExlbmd0aD0iMTIyIiB4PSI0NTUuNSIgeT0iNjMuNjQzNCI+Vmlld3MgV2VhdGhlciBEYXRhPC90ZXh0PjwvZz48IS0tcmV2ZXJzZSBsaW5rIFVzZXIgdG8gVXNlck1vZHVsZS0tPjxnIGlkPSJsaW5rX1VzZXJfVXNlck1vZHVsZSI+PHBhdGggZD0iTTMzOC40NzQ1LDkzLjkyNTYgQzM1Ni43NTQ1LDEwOC4zMTU2IDM4Ni41LDEyOS43NTQ0IDQyMCwxNDMuMzU0NCBDNTAxLjA5LDE3Ni4yNTQ0IDU1MS4wNiwxMjAuNTM0NCA2MTMsMTgyLjM1NDQgQzY2MC4yLDIyOS40NTQ0IDYwNS4xOSwyNzQuNDI0NCA2NDMsMzI5LjM1NDQgQzY0OS43NywzMzkuMTg0NCA2NTkuNzUsMzQ3LjE3NDQgNjY5Ljg1LDM1My4zOTQ0ICIgZmlsbD0ibm9uZSIgaWQ9IlVzZXItYmFja3RvLVVzZXJNb2R1bGUtMSIgc3R5bGU9InN0cm9rZTojMTgxODE4O3N0cm9rZS13aWR0aDoxLjA7Ii8+PHBvbHlnb24gZmlsbD0iIzE4MTgxOCIgcG9pbnRzPSIzMzMuNzYsOTAuMjE0NCwzMzguMzU3Niw5OC45MjQzLDMzNy42ODg4LDkzLjMwNzEsMzQzLjMwNTksOTIuNjM4MywzMzMuNzYsOTAuMjE0NCIgc3R5bGU9InN0cm9rZTojMTgxODE4O3N0cm9rZS13aWR0aDoxLjA7Ii8+PHRleHQgZmlsbD0iIzAwMDAwMCIgZm9udC1mYW1pbHk9InNhbnMtc2VyaWYiIGZvbnQtc2l6ZT0iMTMiIGxlbmd0aEFkanVzdD0ic3BhY2luZyIgdGV4dExlbmd0aD0iMTQyIiB4PSI0NDUuNSIgeT0iMTQxLjY0MzQiPlZpZXdzIENyb3AgWWllbGQgRGF0YTwvdGV4dD48L2c+PCEtLXJldmVyc2UgbGluayBVc2VyIHRvIFVzZXJNb2R1bGUtLT48ZyBpZD0ibGlua19Vc2VyX1VzZXJNb2R1bGUiPjxwYXRoIGQ9Ik0zMzguMjAzNCw5NC40Njc4IEMzNTMuMTEzNCwxMDcuNTI3OCAzNzIuOTksMTI2LjM1NDQgMzkwLDE0OS4zNTQ0IEM0MDYuNzksMTcyLjA1NDQgMzk3LjgsMTg3LjkwNDQgNDIwLDIwNS4zNTQ0IEM0ODkuNjYsMjYwLjExNDQgNTQ2LjM2LDE5Ni45NTQ0IDYxMywyNTUuMzU0NCBDNjM5LjY5LDI3OC43NDQ0IDYyMC4yOCwzMDIuMDk0NCA2NDMsMzI5LjM1NDQgQzY1MC4zOSwzMzguMjE0NCA2NjAuMjEsMzQ1Ljc5NDQgNjY5Ljk1LDM1MS45MzQ0ICIgZmlsbD0ibm9uZSIgaWQ9IlVzZXItYmFja3RvLVVzZXJNb2R1bGUtMiIgc3R5bGU9InN0cm9rZTojMTgxODE4O3N0cm9rZS13aWR0aDoxLjA7Ii8+PHBvbHlnb24gZmlsbD0iIzE4MTgxOCIgcG9pbnRzPSIzMzMuNjksOTAuNTE0NCwzMzcuODI0NSw5OS40NTM0LDMzNy40NTEyLDkzLjgwODksMzQzLjA5NTcsOTMuNDM1NSwzMzMuNjksOTAuNTE0NCIgc3R5bGU9InN0cm9rZTojMTgxODE4O3N0cm9rZS13aWR0aDoxLjA7Ii8+PHRleHQgZmlsbD0iIzAwMDAwMCIgZm9udC1mYW1pbHk9InNhbnMtc2VyaWYiIGZvbnQtc2l6ZT0iMTMiIGxlbmd0aEFkanVzdD0ic3BhY2luZyIgdGV4dExlbmd0aD0iMTkxIiB4PSI0MjEiIHk9IjIwMy42NDM0Ij5WaWV3cyBNYWxudXRyaXRpb24gU3RhdGlzdGljczwvdGV4dD48L2c+PCEtLWxpbmsgVXNlck1vZHVsZSB0byBVc2VyLS0+PGcgaWQ9ImxpbmtfVXNlck1vZHVsZV9Vc2VyIj48cGF0aCBkPSJNNjcxLjUzLDM0Ni42NzQ0IEM2NTQuNDEsMzM2LjMzNDQgNjMzLjI4LDMyNC44NzQ0IDYxMywzMTcuMzU0NCBDNTMwLjk1LDI4Ni45MTQ0IDQ4Mi43NywzMzkuMzI0NCA0MjAsMjc4LjM1NDQgQzM3Ny43OCwyMzcuMzM0NCA0MTguNDksMjAwLjg2NDQgMzkwLDE0OS4zNTQ0IEMzNzUuODMsMTIzLjcyNDQgMzU0LjMzNjksMTA0Ljc2MTIgMzM4LjQ2NjksOTIuNTYxMiAiIGZpbGw9Im5vbmUiIGlkPSJVc2VyTW9kdWxlLXRvLVVzZXIiIHN0eWxlPSJzdHJva2U6IzE4MTgxODtzdHJva2Utd2lkdGg6MS4wOyIvPjxwb2x5Z29uIGZpbGw9IiMxODE4MTgiIHBvaW50cz0iMzMzLjcxLDg4LjkwNDQsMzM4LjQwNzQsOTcuNTYwOCwzMzcuNjc0LDkxLjk1MTcsMzQzLjI4MzIsOTEuMjE4NCwzMzMuNzEsODguOTA0NCIgc3R5bGU9InN0cm9rZTojMTgxODE4O3N0cm9rZS13aWR0aDoxLjA7Ii8+PHRleHQgZmlsbD0iIzAwMDAwMCIgZm9udC1mYW1pbHk9InNhbnMtc2VyaWYiIGZvbnQtc2l6ZT0iMTMiIGxlbmd0aEFkanVzdD0ic3BhY2luZyIgdGV4dExlbmd0aD0iMTIyIiB4PSI0NTUuNSIgeT0iMjc2LjY0MzQiPlByb3ZpZGUgUHJlZGljdGlvbjwvdGV4dD48L2c+PCEtLWxpbmsgQWRtaW5pc3RyYXRvciB0byBBZG1pbk1vZHVsZS0tPjxnIGlkPSJsaW5rX0FkbWluaXN0cmF0b3JfQWRtaW5Nb2R1bGUiPjxwYXRoIGQ9Ik05OC4wNCw1NDkuMzU0NCBDMTM5LjM5LDU0OS4zNTQ0IDE5NS4yOSw1NDkuMzU0NCAyNDIuOTksNTQ5LjM1NDQgIiBmaWxsPSJub25lIiBpZD0iQWRtaW5pc3RyYXRvci10by1BZG1pbk1vZHVsZSIgc3R5bGU9InN0cm9rZTojMTgxODE4O3N0cm9rZS13aWR0aDoxLjA7Ii8+PHBvbHlnb24gZmlsbD0iIzE4MTgxOCIgcG9pbnRzPSIyNDguOTksNTQ5LjM1NDQsMjM5Ljk5LDU0NS4zNTQ0LDI0My45OSw1NDkuMzU0NCwyMzkuOTksNTUzLjM1NDQsMjQ4Ljk5LDU0OS4zNTQ0IiBzdHlsZT0ic3Ryb2tlOiMxODE4MTg7c3Ryb2tlLXdpZHRoOjEuMDsiLz48dGV4dCBmaWxsPSIjMDAwMDAwIiBmb250LWZhbWlseT0ic2Fucy1zZXJpZiIgZm9udC1zaXplPSIxMyIgbGVuZ3RoQWRqdXN0PSJzcGFjaW5nIiB0ZXh0TGVuZ3RoPSI4NyIgeD0iMTI5IiB5PSI1NDcuNjQzNCI+QXV0aGVudGljYXRlczwvdGV4dD48L2c+PCEtLWxpbmsgVXNlck1vZHVsZSB0byBXZWF0aGVyREItLT48ZyBpZD0ibGlua19Vc2VyTW9kdWxlX1dlYXRoZXJEQiI+PHBhdGggZD0iTTc0Ny40LDM2Ni4xMDQ0IEM4MDYuNjcsMzU5LjQxNDQgOTI0Ljg2LDM0NS44OTQ0IDEwMjUsMzMzLjM1NDQgQzEwNDAuMzUsMzMxLjQyNDQgMTA1MC45MTIyLDMzMC4wNjM4IDEwNjYuNDMyMiwzMjguMDAzOCAiIGZpbGw9Im5vbmUiIGlkPSJVc2VyTW9kdWxlLXRvLVdlYXRoZXJEQiIgc3R5bGU9InN0cm9rZTojMTgxODE4O3N0cm9rZS13aWR0aDoxLjA7Ii8+PHBvbHlnb24gZmlsbD0iIzE4MTgxOCIgcG9pbnRzPSIxMDcyLjM4LDMyNy4yMTQ0LDEwNjIuOTMxOSwzMjQuNDMzNCwxMDY3LjQyMzUsMzI3Ljg3MjMsMTA2My45ODQ2LDMzMi4zNjM4LDEwNzIuMzgsMzI3LjIxNDQiIHN0eWxlPSJzdHJva2U6IzE4MTgxODtzdHJva2Utd2lkdGg6MS4wOyIvPjx0ZXh0IGZpbGw9IiMwMDAwMDAiIGZvbnQtZmFtaWx5PSJzYW5zLXNlcmlmIiBmb250LXNpemU9IjEzIiBsZW5ndGhBZGp1c3Q9InNwYWNpbmciIHRleHRMZW5ndGg9IjE1MCIgeD0iODM5LjUiIHk9IjMzMS42NDM0Ij5SZXRyaWV2ZXMgV2VhdGhlciBEYXRhPC90ZXh0PjwvZz48IS0tbGluayBVc2VyTW9kdWxlIHRvIENyb3BEQi0tPjxnIGlkPSJsaW5rX1VzZXJNb2R1bGVfQ3JvcERCIj48cGF0aCBkPSJNNzQ3LjA4LDM1MC45MzQ0IEM3NTYuNiwzNDQuODc0NCA3NjYuMywzMzcuNTg0NCA3NzQsMzI5LjM1NDQgQzc5My4wMiwzMDkuMDE0NCA3ODEuMjEsMjkwLjM0NDQgODA0LDI3NC4zNTQ0IEM4ODUuMzQsMjE3LjI1NDQgOTI3LjY1LDI2MC4zMzQ0IDEwMjUsMjQwLjM1NDQgQzEwMzYuOTUsMjM3Ljg5NDQgMTA0My43MTQ0LDIzNi40MjA2IDEwNTUuOTY0NCwyMzMuNDAwNiAiIGZpbGw9Im5vbmUiIGlkPSJVc2VyTW9kdWxlLXRvLUNyb3BEQiIgc3R5bGU9InN0cm9rZTojMTgxODE4O3N0cm9rZS13aWR0aDoxLjA7Ii8+PHBvbHlnb24gZmlsbD0iIzE4MTgxOCIgcG9pbnRzPSIxMDYxLjc5LDIzMS45NjQ0LDEwNTIuMDk0MiwyMzAuMjM0OSwxMDU2LjkzNTQsMjMzLjE2MTIsMTA1NC4wMDkxLDIzOC4wMDI0LDEwNjEuNzksMjMxLjk2NDQiIHN0eWxlPSJzdHJva2U6IzE4MTgxODtzdHJva2Utd2lkdGg6MS4wOyIvPjx0ZXh0IGZpbGw9IiMwMDAwMDAiIGZvbnQtZmFtaWx5PSJzYW5zLXNlcmlmIiBmb250LXNpemU9IjEzIiBsZW5ndGhBZGp1c3Q9InNwYWNpbmciIHRleHRMZW5ndGg9IjE3MCIgeD0iODI5LjUiIHk9IjIzOC42NDM0Ij5SZXRyaWV2ZXMgQ3JvcCBZaWVsZCBEYXRhPC90ZXh0PjwvZz48IS0tbGluayBVc2VyTW9kdWxlIHRvIE1hbG51dHJpdGlvbkRCLS0+PGcgaWQ9ImxpbmtfVXNlck1vZHVsZV9NYWxudXRyaXRpb25EQiI+PHBhdGggZD0iTTcyNi4yNywzOTMuODc0NCBDNzQzLjEzLDQxNS4yODQ0IDc3MS4yNSw0NDUuNDY0NCA4MDQsNDU4LjM1NDQgQzg4Ni44Miw0OTAuOTQ0NCA5ODQuMzc1Niw0NzkuMjg4MSAxMDUzLjg5NTYsNDYzLjY4ODEgIiBmaWxsPSJub25lIiBpZD0iVXNlck1vZHVsZS10by1NYWxudXRyaXRpb25EQiIgc3R5bGU9InN0cm9rZTojMTgxODE4O3N0cm9rZS13aWR0aDoxLjA7Ii8+PHBvbHlnb24gZmlsbD0iIzE4MTgxOCIgcG9pbnRzPSIxMDU5Ljc1LDQ2Mi4zNzQ0LDEwNTAuMDkyNiw0NjAuNDQyLDEwNTQuODcxMyw0NjMuNDY5MSwxMDUxLjg0NDIsNDY4LjI0NzksMTA1OS43NSw0NjIuMzc0NCIgc3R5bGU9InN0cm9rZTojMTgxODE4O3N0cm9rZS13aWR0aDoxLjA7Ii8+PHRleHQgZmlsbD0iIzAwMDAwMCIgZm9udC1mYW1pbHk9InNhbnMtc2VyaWYiIGZvbnQtc2l6ZT0iMTMiIGxlbmd0aEFkanVzdD0ic3BhY2luZyIgdGV4dExlbmd0aD0iMjE5IiB4PSI4MDUiIHk9IjQ1Ni42NDM0Ij5SZXRyaWV2ZXMgTWFsbnV0cml0aW9uIFN0YXRpc3RpY3M8L3RleHQ+PC9nPjwhLS1saW5rIEFkbWluTW9kdWxlIHRvIERhdGFNYW5hZ2VtZW50LS0+PGcgaWQ9ImxpbmtfQWRtaW5Nb2R1bGVfRGF0YU1hbmFnZW1lbnQiPjxwYXRoIGQ9Ik0zODAuNjgsNTI1Ljc2NDQgQzQ2My44NSw0OTIuOTU0NCA2MDQuNyw0MzYuNTE0NCA2MTMsNDI3LjM1NDQgQzY0My41OSwzOTMuNjA0NCA2MTUuNCwzNjUuNTk0NCA2NDMsMzI5LjM1NDQgQzY0Ny45OCwzMjIuODA0NCA2NDkuNTE2MSwzMjAuNTkyMyA2NTYuMjc2MSwzMTUuNTkyMyAiIGZpbGw9Im5vbmUiIGlkPSJBZG1pbk1vZHVsZS10by1EYXRhTWFuYWdlbWVudCIgc3R5bGU9InN0cm9rZTojMTgxODE4O3N0cm9rZS13aWR0aDoxLjA7Ii8+PHBvbHlnb24gZmlsbD0iIzE4MTgxOCIgcG9pbnRzPSI2NjEuMSwzMTIuMDI0NCw2NTEuNDg1NiwzMTQuMTYwNCw2NTcuMDgwMSwzMTQuOTk3Nyw2NTYuMjQyOCwzMjAuNTkyMiw2NjEuMSwzMTIuMDI0NCIgc3R5bGU9InN0cm9rZTojMTgxODE4O3N0cm9rZS13aWR0aDoxLjA7Ii8+PHRleHQgZmlsbD0iIzAwMDAwMCIgZm9udC1mYW1pbHk9InNhbnMtc2VyaWYiIGZvbnQtc2l6ZT0iMTMiIGxlbmd0aEFkanVzdD0ic3BhY2luZyIgdGV4dExlbmd0aD0iODMiIHg9IjQ3NSIgeT0iNDI1LjY0MzQiPk1hbmFnZXMgRGF0YTwvdGV4dD48L2c+PCEtLWxpbmsgQWRtaW5Nb2R1bGUgdG8gTW9kZWxNYW5hZ2VtZW50LS0+PGcgaWQ9ImxpbmtfQWRtaW5Nb2R1bGVfTW9kZWxNYW5hZ2VtZW50Ij48cGF0aCBkPSJNMzQ4LjQsNTczLjEzNDQgQzM2Ny40Nyw1ODguMzA0NCAzOTMuOTIsNjA3LjMxNDQgNDIwLDYxOS4zNTQ0IEM0OTYuNTEsNjU0LjY3NDQgNTg2LjY0NTEsNjc0LjA1NzIgNjQ2LjA3NTEsNjg0LjE3NzIgIiBmaWxsPSJub25lIiBpZD0iQWRtaW5Nb2R1bGUtdG8tTW9kZWxNYW5hZ2VtZW50IiBzdHlsZT0ic3Ryb2tlOiMxODE4MTg7c3Ryb2tlLXdpZHRoOjEuMDsiLz48cG9seWdvbiBmaWxsPSIjMTgxODE4IiBwb2ludHM9IjY1MS45OSw2ODUuMTg0NCw2NDMuNzg5Miw2NzkuNzMwMyw2NDcuMDYxLDY4NC4zNDUsNjQyLjQ0NjIsNjg3LjYxNjgsNjUxLjk5LDY4NS4xODQ0IiBzdHlsZT0ic3Ryb2tlOiMxODE4MTg7c3Ryb2tlLXdpZHRoOjEuMDsiLz48dGV4dCBmaWxsPSIjMDAwMDAwIiBmb250LWZhbWlseT0ic2Fucy1zZXJpZiIgZm9udC1zaXplPSIxMyIgbGVuZ3RoQWRqdXN0PSJzcGFjaW5nIiB0ZXh0TGVuZ3RoPSI5MCIgeD0iNDcxLjUiIHk9IjYxNy42NDM0Ij5NYW5hZ2VzIE1vZGVsPC90ZXh0PjwvZz48IS0tbGluayBBZG1pbk1vZHVsZSB0byBQcmVkaWN0aW9uR2VuZXJhdGlvbi0tPjxnIGlkPSJsaW5rX0FkbWluTW9kdWxlX1ByZWRpY3Rpb25HZW5lcmF0aW9uIj48cGF0aCBkPSJNMzkwLjA2LDU0NC42MjQ0IEM0MDAuMSw1NDQuMDk0NCA0MTAuMzEsNTQzLjY0NDQgNDIwLDU0My4zNTQ0IEM1NzcuNzksNTM4LjU5NDQgNjMzLjUsNTAwLjM5NDQgNzc0LDU3Mi4zNTQ0IEM3OTAuNTEsNTgwLjgwNDQgNzg2Ljg2LDU5NC4yNzQ0IDgwNCw2MDEuMzU0NCBDODI3LjM1LDYxMC45OTQ0IDk2Ny44MjExLDYwOS45Mjg1IDEwNTguNzIxMSw2MDguMTk4NSAiIGZpbGw9Im5vbmUiIGlkPSJBZG1pbk1vZHVsZS10by1QcmVkaWN0aW9uR2VuZXJhdGlvbiIgc3R5bGU9InN0cm9rZTojMTgxODE4O3N0cm9rZS13aWR0aDoxLjA7Ii8+PHBvbHlnb24gZmlsbD0iIzE4MTgxOCIgcG9pbnRzPSIxMDY0LjcyLDYwOC4wODQ0LDEwNTUuNjQ1NSw2MDQuMjU2NCwxMDU5LjcyMDksNjA4LjE3OTUsMTA1NS43OTc3LDYxMi4yNTQ5LDEwNjQuNzIsNjA4LjA4NDQiIHN0eWxlPSJzdHJva2U6IzE4MTgxODtzdHJva2Utd2lkdGg6MS4wOyIvPjx0ZXh0IGZpbGw9IiMwMDAwMDAiIGZvbnQtZmFtaWx5PSJzYW5zLXNlcmlmIiBmb250LXNpemU9IjEzIiBsZW5ndGhBZGp1c3Q9InNwYWNpbmciIHRleHRMZW5ndGg9IjEyOSIgeD0iNjQ0IiB5PSI1MjkuNjQzNCI+UmVxdWVzdHMgUHJlZGljdGlvbjwvdGV4dD48L2c+PCEtLWxpbmsgVXNlck1vZHVsZSB0byBQcmVkaWN0aW9uR2VuZXJhdGlvbi0tPjxnIGlkPSJsaW5rX1VzZXJNb2R1bGVfUHJlZGljdGlvbkdlbmVyYXRpb24iPjxwYXRoIGQ9Ik03MTkuNzUsMzk0LjAzNDQgQzczNC4wNiw0MjQuMTY0NCA3NjIuOTcsNDc1LjQ5NDQgODA0LDUwMi4zNTQ0IEM4ODguMDIsNTU3LjM0NDQgOTMwLjMsNTE1LjkzNDQgMTAyNSw1NDkuMzU0NCBDMTA0OS44OCw1NTguMTM0NCAxMDcwLjk5NDUsNTY4LjM5NzkgMTA5MS45NTQ1LDU3OS44NDc5ICIgZmlsbD0ibm9uZSIgaWQ9IlVzZXJNb2R1bGUtdG8tUHJlZGljdGlvbkdlbmVyYXRpb24iIHN0eWxlPSJzdHJva2U6IzE4MTgxODtzdHJva2Utd2lkdGg6MS4wOyIvPjxwb2x5Z29uIGZpbGw9IiMxODE4MTgiIHBvaW50cz0iMTA5Ny4yMiw1ODIuNzI0NCwxMDkxLjIzOTMsNTc0Ljg5OTMsMTA5Mi44MzIsNTgwLjMyNzMsMTA4Ny40MDQsNTgxLjkyMDEsMTA5Ny4yMiw1ODIuNzI0NCIgc3R5bGU9InN0cm9rZTojMTgxODE4O3N0cm9rZS13aWR0aDoxLjA7Ii8+PHRleHQgZmlsbD0iIzAwMDAwMCIgZm9udC1mYW1pbHk9InNhbnMtc2VyaWYiIGZvbnQtc2l6ZT0iMTMiIGxlbmd0aEFkanVzdD0ic3BhY2luZyIgdGV4dExlbmd0aD0iMTI5IiB4PSI4NTAiIHk9IjUwMC42NDM0Ij5SZXF1ZXN0cyBQcmVkaWN0aW9uPC90ZXh0PjwvZz48IS0tcmV2ZXJzZSBsaW5rIFVzZXJNb2R1bGUgdG8gUHJlZGljdGlvbkdlbmVyYXRpb24tLT48ZyBpZD0ibGlua19Vc2VyTW9kdWxlX1ByZWRpY3Rpb25HZW5lcmF0aW9uIj48cGF0aCBkPSJNNzI1LjAxNDgsMzk5LjI0MzEgQzczOC40NTQ4LDQyNC41NDMxIDc1Ny4yLDQ2MC43MTQ0IDc3NCw0OTcuMzU0NCBDNzg4LjYyLDUyOS4yMzQ0IDc3NS45NSw1NDkuMjg0NCA4MDQsNTcwLjM1NDQgQzgyNC40LDU4NS42NzQ0IDk3My4xNiw1OTYuODg0NCAxMDY0Ljk4LDYwMi40MzQ0ICIgZmlsbD0ibm9uZSIgaWQ9IlVzZXJNb2R1bGUtYmFja3RvLVByZWRpY3Rpb25HZW5lcmF0aW9uIiBzdHlsZT0ic3Ryb2tlOiMxODE4MTg7c3Ryb2tlLXdpZHRoOjEuMDsiLz48cG9seWdvbiBmaWxsPSIjMTgxODE4IiBwb2ludHM9IjcyMi4yLDM5My45NDQ0LDcyMi44ODk3LDQwMy43NjkxLDcyNC41NDU3LDM5OC4zNiw3MjkuOTU0Nyw0MDAuMDE1OSw3MjIuMiwzOTMuOTQ0NCIgc3R5bGU9InN0cm9rZTojMTgxODE4O3N0cm9rZS13aWR0aDoxLjA7Ii8+PHRleHQgZmlsbD0iIzAwMDAwMCIgZm9udC1mYW1pbHk9InNhbnMtc2VyaWYiIGZvbnQtc2l6ZT0iMTMiIGxlbmd0aEFkanVzdD0ic3BhY2luZyIgdGV4dExlbmd0aD0iMTIyIiB4PSI4NTMuNSIgeT0iNTY4LjY0MzQiPlByb3ZpZGUgUHJlZGljdGlvbjwvdGV4dD48L2c+PCEtLWxpbmsgUHJlZGljdGlvbkdlbmVyYXRpb24gdG8gTW9kZWxNYW5hZ2VtZW50LS0+PGcgaWQ9ImxpbmtfUHJlZGljdGlvbkdlbmVyYXRpb25fTW9kZWxNYW5hZ2VtZW50Ij48cGF0aCBkPSJNMTA2NC45OCw2MjIuMzY0NCBDMTA1MS43MSw2MjUuMTQ0NCAxMDM3Ljk1LDYyNy45MTQ0IDEwMjUsNjMwLjM1NDQgQzkyNy4yLDY0OC43MzQ0IDkwMS4xMiw2NDQuNjQ0NCA4MDQsNjY2LjM1NDQgQzc5MS4zNCw2NjkuMTc0NCA3ODMuNjQ1NSw2NzEuMDc4MyA3NzAuOTY1NSw2NzQuNjQ4MyAiIGZpbGw9Im5vbmUiIGlkPSJQcmVkaWN0aW9uR2VuZXJhdGlvbi10by1Nb2RlbE1hbmFnZW1lbnQiIHN0eWxlPSJzdHJva2U6IzE4MTgxODtzdHJva2Utd2lkdGg6MS4wOyIvPjxwb2x5Z29uIGZpbGw9IiMxODE4MTgiIHBvaW50cz0iNzY1LjE5LDY3Ni4yNzQ0LDc3NC45MzcyLDY3Ny42ODU2LDc3MC4wMDI5LDY3NC45MTkzLDc3Mi43NjkyLDY2OS45ODUsNzY1LjE5LDY3Ni4yNzQ0IiBzdHlsZT0ic3Ryb2tlOiMxODE4MTg7c3Ryb2tlLXdpZHRoOjEuMDsiLz48dGV4dCBmaWxsPSIjMDAwMDAwIiBmb250LWZhbWlseT0ic2Fucy1zZXJpZiIgZm9udC1zaXplPSIxMyIgbGVuZ3RoQWRqdXN0PSJzcGFjaW5nIiB0ZXh0TGVuZ3RoPSI4OSIgeD0iODcwIiB5PSI2MjguNjQzNCI+UHJvdmlkZXMgRGF0YTwvdGV4dD48L2c+PCEtLWxpbmsgTW9kZWxNYW5hZ2VtZW50IHRvIFByZWRpY3Rpb25HZW5lcmF0aW9uLS0+PGcgaWQ9ImxpbmtfTW9kZWxNYW5hZ2VtZW50X1ByZWRpY3Rpb25HZW5lcmF0aW9uIj48cGF0aCBkPSJNNzY1LjA0LDcwMi4wNTQ0IEM4MjkuNDIsNzA5Ljk1NDQgOTM3LjgxLDcxNi4zOTQ0IDEwMjUsNjg3LjM1NDQgQzEwNTkuNzEsNjc1Ljc5NDQgMTA4OC40NDYyLDY1My40Njg2IDExMDkuNjU2Miw2MzMuOTM4NiAiIGZpbGw9Im5vbmUiIGlkPSJNb2RlbE1hbmFnZW1lbnQtdG8tUHJlZGljdGlvbkdlbmVyYXRpb24iIHN0eWxlPSJzdHJva2U6IzE4MTgxODtzdHJva2Utd2lkdGg6MS4wOyIvPjxwb2x5Z29uIGZpbGw9IiMxODE4MTgiIHBvaW50cz0iMTExNC4wNyw2MjkuODc0NCwxMTA0LjczOTcsNjMzLjAyODIsMTExMC4zOTE4LDYzMy4yNjEyLDExMTAuMTU4Nyw2MzguOTEzMywxMTE0LjA3LDYyOS44NzQ0IiBzdHlsZT0ic3Ryb2tlOiMxODE4MTg7c3Ryb2tlLXdpZHRoOjEuMDsiLz48dGV4dCBmaWxsPSIjMDAwMDAwIiBmb250LWZhbWlseT0ic2Fucy1zZXJpZiIgZm9udC1zaXplPSIxMyIgbGVuZ3RoQWRqdXN0PSJzcGFjaW5nIiB0ZXh0TGVuZ3RoPSIxNTAiIHg9IjgzOS41IiB5PSI2ODUuNjQzNCI+UHJvdmlkZXMgVHJhaW5lZCBNb2RlbDwvdGV4dD48L2c+PCEtLWxpbmsgVXNlck1vZHVsZSB0byBXZWF0aGVyQVBJLS0+PGcgaWQ9ImxpbmtfVXNlck1vZHVsZV9XZWF0aGVyQVBJIj48cGF0aCBkPSJNNzI0LjkzLDM5NC4wNTQ0IEM3NDAuMTgsNDE4Ljc2NDQgNzYyLjgsNDU5LjE0NDQgNzc0LDQ5Ny4zNTQ0IEM3OTIuNzIsNTYxLjIyNDQgNzU0LjY0LDc1MC43MDQ0IDgwNCw3OTUuMzU0NCBDODc5LjIxLDg2My4zNjQ0IDEwMDEuNzkzNyw4MzQuMzQ0IDEwNzUuNDAzNyw4MDcuODg0ICIgZmlsbD0ibm9uZSIgaWQ9IlVzZXJNb2R1bGUtdG8tV2VhdGhlckFQSSIgc3R5bGU9InN0cm9rZTojMTgxODE4O3N0cm9rZS13aWR0aDoxLjA7Ii8+PHBvbHlnb24gZmlsbD0iIzE4MTgxOCIgcG9pbnRzPSIxMDgxLjA1LDgwNS44NTQ0LDEwNzEuMjI3NSw4MDUuMTM0NiwxMDc2LjM0NDgsODA3LjU0NTcsMTA3My45MzM2LDgxMi42NjMsMTA4MS4wNSw4MDUuODU0NCIgc3R5bGU9InN0cm9rZTojMTgxODE4O3N0cm9rZS13aWR0aDoxLjA7Ii8+PHRleHQgZmlsbD0iIzAwMDAwMCIgZm9udC1mYW1pbHk9InNhbnMtc2VyaWYiIGZvbnQtc2l6ZT0iMTMiIGxlbmd0aEFkanVzdD0ic3BhY2luZyIgdGV4dExlbmd0aD0iMTQ0IiB4PSI4NDIuNSIgeT0iNzkzLjY0MzQiPlJlcXVlc3RzIFdlYXRoZXIgRGF0YTwvdGV4dD48L2c+PCEtLWxpbmsgV2VhdGhlckFQSSB0byBVc2VyTW9kdWxlLS0+PGcgaWQ9ImxpbmtfV2VhdGhlckFQSV9Vc2VyTW9kdWxlIj48cGF0aCBkPSJNMTA2OC4xNyw3NzYuNDA0NCBDOTc1LjksNzY3LjgyNDQgODIyLjE5LDc1MC45NDQ0IDgwNCw3MzIuMzU0NCBDNzY3LjE4LDY5NC43MjQ0IDc4OS40OCw1NDcuNjc0NCA3NzQsNDk3LjM1NDQgQzc2Mi4yOSw0NTkuMjk0NCA3NDIuOTIxLDQyMy45OTg4IDcyNy44NDEsMzk5LjIzODggIiBmaWxsPSJub25lIiBpZD0iV2VhdGhlckFQSS10by1Vc2VyTW9kdWxlIiBzdHlsZT0ic3Ryb2tlOiMxODE4MTg7c3Ryb2tlLXdpZHRoOjEuMDsiLz48cG9seWdvbiBmaWxsPSIjMTgxODE4IiBwb2ludHM9IjcyNC43MiwzOTQuMTE0NCw3MjUuOTg1Miw0MDMuODgxNiw3MjcuMzIwOCwzOTguMzg0Nyw3MzIuODE3OCwzOTkuNzIwMyw3MjQuNzIsMzk0LjExNDQiIHN0eWxlPSJzdHJva2U6IzE4MTgxODtzdHJva2Utd2lkdGg6MS4wOyIvPjx0ZXh0IGZpbGw9IiMwMDAwMDAiIGZvbnQtZmFtaWx5PSJzYW5zLXNlcmlmIiBmb250LXNpemU9IjEzIiBsZW5ndGhBZGp1c3Q9InNwYWNpbmciIHRleHRMZW5ndGg9IjEyNCIgeD0iODUyLjUiIHk9IjczMC42NDM0Ij5TZW5kcyBXZWF0aGVyIERhdGE8L3RleHQ+PC9nPjwhLS1saW5rIERhdGFNYW5hZ2VtZW50IHRvIE1hbG51dHJpdGlvbkRCLS0+PGcgaWQ9ImxpbmtfRGF0YU1hbmFnZW1lbnRfTWFsbnV0cml0aW9uREIiPjxwYXRoIGQ9Ik03NTMuMDUsMzExLjg1NDQgQzc2MC41NCwzMTcuMDI0NCA3NjcuODgsMzIyLjkwNDQgNzc0LDMyOS4zNTQ0IEM3OTIuNjQsMzQ4Ljk3NDQgNzgxLjg4LDM2Ni43NTQ0IDgwNCwzODIuMzU0NCBDODQzLjQ1LDQxMC4xNTQ0IDk2My41ODU2LDQyNS42MDEzIDEwNDguOTE1Niw0MzMuNTAxMyAiIGZpbGw9Im5vbmUiIGlkPSJEYXRhTWFuYWdlbWVudC10by1NYWxudXRyaXRpb25EQiIgc3R5bGU9InN0cm9rZTojMTgxODE4O3N0cm9rZS13aWR0aDoxLjA7Ii8+PHBvbHlnb24gZmlsbD0iIzE4MTgxOCIgcG9pbnRzPSIxMDU0Ljg5LDQzNC4wNTQ0LDEwNDYuMjk3MSw0MjkuMjQxNywxMDQ5LjkxMTMsNDMzLjU5MzQsMTA0NS41NTk2LDQzNy4yMDc3LDEwNTQuODksNDM0LjA1NDQiIHN0eWxlPSJzdHJva2U6IzE4MTgxODtzdHJva2Utd2lkdGg6MS4wOyIvPjx0ZXh0IGZpbGw9IiMwMDAwMDAiIGZvbnQtZmFtaWx5PSJzYW5zLXNlcmlmIiBmb250LXNpemU9IjEzIiBsZW5ndGhBZGp1c3Q9InNwYWNpbmciIHRleHRMZW5ndGg9Ijk1IiB4PSI4NjciIHk9IjM4MC42NDM0Ij5TdG9yZS9SZXRyaWV2ZTwvdGV4dD48L2c+PCEtLWxpbmsgRGF0YU1hbmFnZW1lbnQgdG8gQ3JvcERCLS0+PGcgaWQ9ImxpbmtfRGF0YU1hbmFnZW1lbnRfQ3JvcERCIj48cGF0aCBkPSJNNzMzLjE2LDI2NC42NjQ0IEM3NTAuOTYsMjQ4LjU1NDQgNzc2Ljg4LDIyOC41NjQ0IDgwNCwyMTkuMzU0NCBDODg4LjczLDE5MC41ODQ0IDk4Ni42OSwxOTMuMDI1NiAxMDU1Ljc4LDE5OS45NTU2ICIgZmlsbD0ibm9uZSIgaWQ9IkRhdGFNYW5hZ2VtZW50LXRvLUNyb3BEQiIgc3R5bGU9InN0cm9rZTojMTgxODE4O3N0cm9rZS13aWR0aDoxLjA7Ii8+PHBvbHlnb24gZmlsbD0iIzE4MTgxOCIgcG9pbnRzPSIxMDYxLjc1LDIwMC41NTQ0LDEwNTMuMTk0MSwxOTUuNjc2MSwxMDU2Ljc3NSwyMDAuMDU1NCwxMDUyLjM5NTcsMjAzLjYzNjIsMTA2MS43NSwyMDAuNTU0NCIgc3R5bGU9InN0cm9rZTojMTgxODE4O3N0cm9rZS13aWR0aDoxLjA7Ii8+PHRleHQgZmlsbD0iIzAwMDAwMCIgZm9udC1mYW1pbHk9InNhbnMtc2VyaWYiIGZvbnQtc2l6ZT0iMTMiIGxlbmd0aEFkanVzdD0ic3BhY2luZyIgdGV4dExlbmd0aD0iOTUiIHg9Ijg2NyIgeT0iMTk0LjY0MzQiPlN0b3JlL1JldHJpZXZlPC90ZXh0PjwvZz48IS0tbGluayBEYXRhTWFuYWdlbWVudCB0byBXZWF0aGVyREItLT48ZyBpZD0ibGlua19EYXRhTWFuYWdlbWVudF9XZWF0aGVyREIiPjxwYXRoIGQ9Ik03NjEuNTUsMjkyLjAwNDQgQzgzOS42NCwyOTcuNDc0NCA5ODEuMDE0NywzMDcuMzg0OSAxMDY2LjIwNDcsMzEzLjM1NDkgIiBmaWxsPSJub25lIiBpZD0iRGF0YU1hbmFnZW1lbnQtdG8tV2VhdGhlckRCIiBzdHlsZT0ic3Ryb2tlOiMxODE4MTg7c3Ryb2tlLXdpZHRoOjEuMDsiLz48cG9seWdvbiBmaWxsPSIjMTgxODE4IiBwb2ludHM9IjEwNzIuMTksMzEzLjc3NDQsMTA2My40OTE2LDMwOS4xNTUsMTA2Ny4yMDIyLDMxMy40MjQ4LDEwNjIuOTMyNCwzMTcuMTM1NCwxMDcyLjE5LDMxMy43NzQ0IiBzdHlsZT0ic3Ryb2tlOiMxODE4MTg7c3Ryb2tlLXdpZHRoOjEuMDsiLz48dGV4dCBmaWxsPSIjMDAwMDAwIiBmb250LWZhbWlseT0ic2Fucy1zZXJpZiIgZm9udC1zaXplPSIxMyIgbGVuZ3RoQWRqdXN0PSJzcGFjaW5nIiB0ZXh0TGVuZ3RoPSI5NSIgeD0iODY3IiB5PSIyOTQuNjQzNCI+U3RvcmUvUmV0cmlldmU8L3RleHQ+PC9nPjwhLS1saW5rIEFkbWluTW9kdWxlIHRvIFVzZXJEQi0tPjxnIGlkPSJsaW5rX0FkbWluTW9kdWxlX1VzZXJEQiI+PHBhdGggZD0iTTM5MC4xMyw1NjAuNjg0NCBDNDY1LjQzLDU3Mi45NDQ0IDU3Ny45NjgsNTkxLjI2IDY0Ni44NjgsNjAyLjQ4ICIgZmlsbD0ibm9uZSIgaWQ9IkFkbWluTW9kdWxlLXRvLVVzZXJEQiIgc3R5bGU9InN0cm9rZTojMTgxODE4O3N0cm9rZS13aWR0aDoxLjA7Ii8+PHBvbHlnb24gZmlsbD0iIzE4MTgxOCIgcG9pbnRzPSI2NTIuNzksNjAzLjQ0NDQsNjQ0LjU0OTksNTk4LjA0OTgsNjQ3Ljg1NSw2MDIuNjQwNyw2NDMuMjY0MSw2MDUuOTQ1OCw2NTIuNzksNjAzLjQ0NDQiIHN0eWxlPSJzdHJva2U6IzE4MTgxODtzdHJva2Utd2lkdGg6MS4wOyIvPjx0ZXh0IGZpbGw9IiMwMDAwMDAiIGZvbnQtZmFtaWx5PSJzYW5zLXNlcmlmIiBmb250LXNpemU9IjEzIiBsZW5ndGhBZGp1c3Q9InNwYWNpbmciIHRleHRMZW5ndGg9Ijk1IiB4PSI0NjkiIHk9IjU2NC42NDM0Ij5TdG9yZS9SZXRyaWV2ZTwvdGV4dD48L2c+PCEtLVNSQz1bZExIREpuaW40QnR4THVub2VlVExuSEtYOURmaktJSDA0SWNXN2lyd0kybmpsNjFGUUFrQV96d25UeEVubEt1Z2FMQ3lWY3ktdFpubFl5eTRyODdMZ3BNMXFYT1JxZnFIZkFiNWtDT3RSRTRLd2tfcjZUbmtvVWc1SFFLUldrS1ZIeFkxYXhjZlFkb1h6SVNYUDRFVFhOazdUbFh4Z0pSUVE0VE15YWFxZEk3UmpKM3h6ZmxHNmpkMjhxZlE4LUNNeW5iOGpwbHBLVldzZjVibjJ4RDJzSGR5NVMwXzlLYS1JU1NXTm5OZ3VIWUktS1p6OU9GakFZUjg4SlcxVnhOVDJfcEtzQWVLeC1DSnk4cmlaTV9LWXZWMnV2azFEYWVIc2h4ZnJCUlREenFWS3JvWVA0bTg1b002UnU1QjZ4ZDIzSGVBTzFfUlhyOHl2LTFEUHVHR0ZDR09Ma0JkbEtBM3QxaF8zUkp6cFZ2MmwwaUhmZ3NnWXNYQ0U4RXZPTWFhZU9DeFZEc1k4djVFd21kSGNDb3V0RkEtM0VkNmlxSUtwNEY3UkpCbTNiYnRqbDJ1dW8xMXR5VHZMUUx6RjZaeUxHMTZnVmw1OXRhcFpubkROUzk2c0xFVjk1S0lTb3M5MU5LeWxKalF4SDBkYmpBTkpLdDF6RnhHa3NNMnBYbUhtU0ZEMTUtb0dYV2pSM2dzSVl4N252WFVaMEZDWFV0VWpDOFo5T0VTSE0wblBMY0ZXSnRlYnp5VmNNbWFfaDFJNnJJM2VjTHh5cFNvNVlEblJHSVBGQk9iNmZOMUNtQ21QVUI0OVJ6M19CcHBPdTRubGVwXzhrRmRjTzVweF9IVnkxcHMzbTAwXS0tPjwvZz48L3N2Zz4=;" parent="1" vertex="1">
            <mxGeometry x="190" y="60" width="1244" height="870" as="geometry" />
          </mxCell>
        </UserObject>
      </root>
    </mxGraphModel>
  </diagram>
  <diagram id="Fe1WbBeQ0b5N5HGPlwyN" name="Page-4">
    <mxGraphModel dx="1005" dy="686" grid="1" gridSize="10" guides="1" tooltips="1" connect="1" arrows="1" fold="1" page="1" pageScale="1" pageWidth="900" pageHeight="1600" math="0" shadow="0">
      <root>
        <mxCell id="0" />
        <mxCell id="1" parent="0" />
      </root>
    </mxGraphModel>
  </diagram>
</mxfile>
